<?xml version="1.0" encoding="UTF-8" standalone="no"?><svg xmlns="http://www.w3.org/2000/svg" style="isolation:isolate" viewBox="0 0 1024 579.423" width="1024pt" height="772.564"><path d="M806.7 467.135c-23.94 0-47.183-4.7-69.067-13.953-21.114-8.922-40.097-21.737-56.4-38.003-16.303-16.303-29.081-35.25-38.004-56.4-9.253-21.884-13.953-45.127-13.953-69.067 0-23.941 4.7-47.184 13.953-69.068 8.923-21.113 21.738-40.097 38.004-56.4 16.303-16.303 35.25-29.081 56.4-38.003 21.884-9.253 45.127-13.953 69.067-13.953 23.94 0 47.183 4.7 69.067 13.953 21.114 8.922 40.097 21.737 56.4 38.003 16.303 16.303 29.081 35.25 38.004 56.4 9.253 21.884 13.953 45.127 13.953 69.068 0 23.94-4.7 47.183-13.953 69.067-8.923 21.113-21.738 40.097-38.004 56.4-16.303 16.303-35.25 29.081-56.4 38.003-21.884 9.253-45.127 13.953-69.067 13.953Zm0-348.164c-23.059 0-45.421 4.516-66.46 13.402-20.343 8.592-38.592 20.929-54.27 36.608-15.679 15.679-27.98 33.928-36.609 54.27-8.886 21.04-13.402 43.401-13.402 66.461 0 23.059 4.516 45.42 13.402 66.46 8.592 20.342 20.93 38.591 36.609 54.27 15.678 15.679 33.927 27.979 54.27 36.608 21.039 8.886 43.401 13.402 66.46 13.402 23.059 0 45.421-4.516 66.46-13.402 20.343-8.592 38.592-20.929 54.27-36.608 15.679-15.679 27.98-33.928 36.609-54.27 8.886-21.04 13.402-43.401 13.402-66.46 0-23.06-4.516-45.421-13.402-66.461-8.592-20.342-20.93-38.591-36.609-54.27-15.678-15.679-33.927-27.979-54.27-36.608-21.039-8.886-43.401-13.402-66.46-13.402Z" fill="#FFF" style="opacity:.5"/><path d="m806.7 150.805-1.689-23.352h3.341l-1.652 23.352Z" fill="#444"/><path d="m782.576 152.935-5.691-22.729 3.268-.55 2.423 23.279Zm-23.39 6.242-9.547-21.37 3.122-1.138 6.425 22.508Zm-21.957 10.245-13.109-19.388 2.901-1.652 10.208 21.04Zm-19.828 13.879-16.267-16.817 2.534-2.129 13.733 18.946Zm-17.111 17.111-18.947-13.733 2.13-2.533 16.817 16.266Zm-13.88 19.828-21.039-10.208 1.652-2.9 19.387 13.108Zm-10.244 21.958-22.509-6.426 1.139-3.121 21.37 9.547Zm2.019-4.7c6.977-17.184 17.221-32.606 30.477-45.862 13.255-13.255 28.677-23.499 45.861-30.476 16.597-6.719 34.185-10.134 52.177-10.134v-23.684c-41.565 0-83.094 15.863-114.782 47.551-31.688 31.688-47.587 73.253-47.587 114.819h23.683c0-18.029 3.415-35.581 10.171-52.214Zm-8.261 28.089-23.28-2.423.551-3.268 22.729 5.691Z" fill-rule="evenodd" fill="#FFF" opacity=".5"/><path d="m667.794 289.712-23.353 1.652v-3.342l23.353 1.69Z" fill="#444"/><path d="m669.924 313.836-22.729 5.691-.551-3.305 23.28-2.386Zm6.242 23.389-21.37 9.547-1.139-3.158 22.509-6.389Zm10.244 21.921-19.387 13.145-1.652-2.9 21.039-10.245Zm13.88 19.828-16.817 16.303-2.13-2.57 18.947-13.733Zm17.111 17.148-13.733 18.946-2.534-2.129 16.267-16.817Zm19.828 13.879-10.208 21.04-2.901-1.652 13.109-19.388Zm21.957 10.245-6.425 22.508-3.122-1.175 9.547-21.333Zm47.514 8.151c-18.029 0-35.58-3.415-52.177-10.134-17.184-6.977-32.606-17.221-45.861-30.476-13.256-13.256-23.5-28.678-30.477-45.862-6.719-16.597-10.134-34.185-10.134-52.177h-23.683c0 41.566 15.862 83.094 47.55 114.782 31.688 31.688 73.253 47.551 114.782 47.551v-23.684Zm-24.124-1.909-2.423 23.279-3.268-.587 5.691-22.692Z" fill-rule="evenodd" fill="#FFF"/><path d="m806.7 428.618 1.652 23.316h-3.341l1.689-23.316Z" fill="#444"/><path d="m830.824 426.488 5.691 22.692-3.304.587-2.387-23.279Zm23.39-6.242 9.547 21.333-3.158 1.175-6.389-22.508Zm21.921-10.245 13.145 19.388-2.901 1.652-10.244-21.04Zm19.828-13.879 16.303 16.817-2.571 2.129-13.732-18.946Zm17.147-17.148 18.947 13.733-2.13 2.57-16.817-16.303Zm13.88-19.828 21.039 10.245-1.652 2.9-19.387-13.145Zm10.244-21.921 22.509 6.389-1.175 3.158-21.334-9.547Zm-15.752 67.269c31.688-31.689 47.55-73.254 47.55-114.782h-23.683c0 18.028-3.415 35.58-10.134 52.176-6.977 17.185-17.221 32.606-30.477 45.862-13.255 13.255-28.677 23.5-45.861 30.476-16.597 6.72-34.185 10.135-52.177 10.135v23.683c41.529 0 83.094-15.826 114.782-47.55Zm21.994-90.658 23.28 2.386-.588 3.305-22.692-5.691Z" fill-rule="evenodd" fill="#FFF" opacity=".5"/><path d="m945.606 289.712 23.316-1.69v3.342l-23.316-1.652Z" fill="#444"/><path d="m943.476 265.587 22.692-5.691.588 3.268-23.28 2.423Zm-6.242-23.389 21.334-9.547 1.175 3.121-22.509 6.426ZM926.99 220.24l19.387-13.108 1.652 2.9-21.039 10.208Zm-13.88-19.828 16.817-16.266 2.13 2.533-18.947 13.733Zm-17.147-17.111 13.732-18.946 2.571 2.129-16.303 16.817Zm-19.828-13.879 10.244-21.04 2.901 1.652-13.145 19.388Zm-21.921-10.245 6.389-22.508 3.158 1.138-9.547 21.37Zm4.663 2.02c17.184 6.976 32.606 17.221 45.861 30.476 13.256 13.256 23.5 28.677 30.477 45.862 6.719 16.596 10.134 34.184 10.134 52.177h23.683c0-41.566-15.862-83.094-47.55-114.782-31.688-31.689-73.253-47.588-114.782-47.588v23.684c18.029 0 35.58 3.415 52.177 10.171Zm-28.053-8.262 2.387-23.279 3.304.55-5.691 22.729Z" fill-rule="evenodd" fill="#FFF"/><path d="M849.808 308.952 1024 289.712l-190.863-12.595 68.297-82.139-82.14 61.613L806.7 72.412l-19.24 174.192-85.518-61.65 61.65 85.517L589.4 289.712l174.192 19.24-61.65 85.517 85.518-61.65 19.24 174.193 19.24-174.193 85.518 61.65-61.65-85.517Z" fill="#FFF" opacity=".5"/><path d="m806.7 72.412-9.253 174.192-33.855 33.854-174.192 9.254 174.192 19.24-61.65 85.517 85.518-61.65 19.24 174.193v-434.6Z" fill="#FFF" opacity=".5"/><path d="m1024 289.712-174.192-19.241 61.65-85.517-85.518 61.65L806.7 72.412l-19.24 174.192-85.518-61.65 61.65 85.517L589.4 289.712H1024Z" fill="#FFF"/><path d="M806.7 289.712H1024l-174.192-19.241 61.65-85.517-85.518 61.65L806.7 72.412v217.3Z" fill="#FFF" opacity=".5"/><path d="M792.661 295.931c-3.431-7.745.072-16.818 7.817-20.249 7.745-3.43 16.818.072 20.249 7.817 3.431 7.745-.072 16.819-7.817 20.249-7.745 3.431-16.818-.072-20.249-7.817Z" fill="#FFF"/><path d="M792.661 295.931c-3.431-7.745.072-16.818 7.817-20.249 7.745-3.43 16.818.072 20.249 7.817 3.431 7.745-.072 16.819-7.817 20.249-7.745 3.431-16.818-.072-20.249-7.817Z"/><path d="m851.011 390.149-42.999-45.584-40.967 47.42 1.828-62.639-62.498 4.564 45.584-42.999-47.42-40.967 62.639 1.828-4.564-62.498 42.999 45.584 40.967-47.42-1.828 62.639 62.498-4.564-45.584 42.999 47.42 40.967-62.639-1.828 4.564 62.498Z" fill="#FFF" opacity=".35"/><path d="m825.28 298.01 75.162-8.298-75.162-8.299 26.62-36.902-36.902 26.584-8.298-75.126-8.298 75.126-36.902-26.584 26.584 36.902-75.126 8.299 75.126 8.298-26.584 36.902 36.902-26.621 8.298 75.163 8.298-75.163 36.902 26.621-26.62-36.902Z" fill="#FFF" opacity=".75"/><g fill="#FFF"><path d="m108.375 277.938-3.889.233q-3.203.116-5.033-1.745-1.83-1.861-1.83-4.77 0-2.21 1.316-3.897 1.315-1.687 3.831-1.803l3.432-.233q5.032-.349 7.606-3.199 2.573-2.851 2.573-8.202V201.97q0-3.722 1.888-5.642 1.887-1.919 5.433-1.919 3.545 0 5.433 1.919 1.887 1.92 1.887 5.642v52.236q0 7.329-2.574 12.448-2.573 5.119-7.606 7.969-5.033 2.85-12.467 3.315Zm62.807.582q-8.693 0-15.098-3.606-6.405-3.607-9.951-10.296-3.546-6.69-3.546-15.764 0-6.864 2.002-12.273 2.002-5.41 5.776-9.307 3.775-3.898 9.036-5.933 5.261-2.036 11.781-2.036 8.693 0 15.098 3.606 6.405 3.606 9.951 10.238 3.546 6.631 3.546 15.705 0 6.864-2.002 12.332-2.002 5.468-5.776 9.365-3.775 3.897-9.036 5.933-5.261 2.036-11.781 2.036Zm0-11.052q4.232 0 7.435-2.094 3.202-2.094 4.975-6.224 1.773-4.13 1.773-10.296 0-9.307-3.889-13.902-3.889-4.595-10.294-4.595-4.232 0-7.435 2.036-3.202 2.035-4.975 6.165-1.773 4.13-1.773 10.296 0 9.191 3.889 13.902 3.889 4.712 10.294 4.712Zm46.222 10.819q-3.546 0-5.433-1.919-1.887-1.92-1.887-5.526v-43.975q0-3.607 1.83-5.468 1.83-1.862 5.147-1.862t5.147 1.862q1.83 1.861 1.83 5.468v7.329h-1.144q1.602-6.981 6.291-10.587 4.69-3.606 12.468-4.304 2.401-.233 3.831 1.221 1.43 1.454 1.659 4.479.228 2.908-1.316 4.712-1.544 1.803-4.632 2.152l-2.516.233q-6.977.698-10.523 4.362-3.546 3.665-3.546 10.296v24.082q0 3.606-1.83 5.526-1.83 1.919-5.376 1.919Zm43.134 0q-3.431 0-5.261-1.919-1.83-1.92-1.83-5.526v-43.975q0-3.607 1.83-5.468 1.83-1.862 5.147-1.862t5.147 1.862q1.83 1.861 1.83 5.468v7.91l-1.258-2.908q2.516-6.166 7.835-9.365 5.318-3.199 12.067-3.199 6.748 0 11.094 2.559 4.347 2.559 6.52 7.736 2.173 5.177 2.173 13.088v28.154q0 3.606-1.83 5.526-1.83 1.919-5.261 1.919-3.432 0-5.319-1.919-1.887-1.92-1.887-5.526v-27.456q0-6.631-2.459-9.656-2.459-3.024-7.607-3.024-6.29 0-10.008 4.013-3.717 4.014-3.717 10.645v25.478q0 7.445-7.206 7.445Zm76.762.233q-6.063 0-10.809-2.385-4.747-2.385-7.435-6.457-2.688-4.071-2.688-9.19 0-6.282 3.203-9.947 3.202-3.665 10.408-5.293 7.206-1.629 19.33-1.629h5.719v8.376h-5.604q-7.092 0-11.324.698t-6.005 2.385q-1.773 1.687-1.773 4.712 0 3.839 2.631 6.282t7.32 2.443q3.775 0 6.692-1.803 2.916-1.803 4.632-4.944 1.716-3.142 1.716-7.213v-13.379q0-5.817-2.517-8.376-2.516-2.56-8.464-2.56-3.317 0-7.148.815-3.832.814-8.064 2.792-2.173 1.047-3.832.581-1.658-.465-2.573-1.919t-.915-3.199q0-1.745.915-3.432.915-1.687 3.088-2.502 5.261-2.21 10.122-3.141 4.861-.93 8.865-.93 8.235 0 13.554 2.559 5.318 2.559 7.949 7.736 2.631 5.177 2.631 13.321v27.921q0 3.606-1.716 5.526-1.716 1.919-4.918 1.919-3.203 0-4.976-1.919-1.773-1.92-1.773-5.526v-5.584h.915q-.8 4.071-3.145 7.038-2.345 2.967-5.891 4.595-3.545 1.629-8.12 1.629Zm64.179 0q-7.32 0-12.867-3.606-5.548-3.607-8.636-10.296-3.088-6.69-3.088-15.764 0-9.19 3.088-15.763 3.088-6.574 8.636-10.18 5.547-3.606 12.867-3.606 6.977 0 12.182 3.49 5.204 3.49 7.034 9.19h-1.258v-30.247q0-3.607 1.83-5.468 1.83-1.861 5.261-1.861 3.432 0 5.319 1.861t1.887 5.468v69.104q0 3.606-1.83 5.526-1.83 1.919-5.261 1.919-3.432 0-5.262-1.919-1.83-1.92-1.83-5.526v-9.074l1.258 3.49q-1.715 6.049-6.977 9.656-5.261 3.606-12.353 3.606Zm4.004-11.052q4.231 0 7.434-2.094 3.203-2.094 4.976-6.224 1.772-4.13 1.772-10.296 0-9.307-3.888-13.902-3.889-4.595-10.294-4.595-4.233 0-7.435 2.036-3.203 2.035-4.976 6.165-1.773 4.13-1.773 10.296 0 9.191 3.889 13.902 3.889 4.712 10.295 4.712Zm60.062 11.052q-6.062 0-10.809-2.385-4.747-2.385-7.435-6.457-2.688-4.071-2.688-9.19 0-6.282 3.203-9.947 3.202-3.665 10.408-5.293 7.206-1.629 19.33-1.629h5.719v8.376h-5.604q-7.092 0-11.324.698t-6.005 2.385q-1.773 1.687-1.773 4.712 0 3.839 2.631 6.282t7.32 2.443q3.775 0 6.692-1.803 2.916-1.803 4.632-4.944 1.716-3.142 1.716-7.213v-13.379q0-5.817-2.517-8.376-2.516-2.56-8.464-2.56-3.317 0-7.148.815-3.832.814-8.064 2.792-2.173 1.047-3.832.581-1.658-.465-2.573-1.919t-.915-3.199q0-1.745.915-3.432.915-1.687 3.088-2.502 5.261-2.21 10.122-3.141 4.861-.93 8.865-.93 8.235 0 13.554 2.559 5.318 2.559 7.949 7.736 2.631 5.177 2.631 13.321v27.921q0 3.606-1.716 5.526-1.716 1.919-4.918 1.919-3.203 0-4.976-1.919-1.773-1.92-1.773-5.526v-5.584h.915q-.8 4.071-3.145 7.038-2.345 2.967-5.891 4.595-3.545 1.629-8.12 1.629Zm63.15 0q-4.918 0-10.409-1.047-5.49-1.047-9.836-3.606-1.83-1.164-2.574-2.734-.743-1.571-.572-3.141.172-1.571 1.144-2.734.972-1.164 2.516-1.513 1.545-.349 3.375.582 4.575 2.21 8.578 3.083 4.003.872 7.892.872 5.49 0 8.178-1.919 2.688-1.92 2.688-5.061 0-2.676-1.773-4.13-1.773-1.454-5.318-2.152l-11.438-2.21q-7.092-1.396-10.809-5.294-3.717-3.897-3.717-10.063 0-5.584 3.031-9.656 3.031-4.072 8.407-6.282 5.375-2.21 12.353-2.21 5.032 0 9.436 1.105 4.403 1.105 8.521 3.432 1.716.93 2.345 2.443.629 1.512.286 3.083-.343 1.57-1.373 2.792-1.029 1.221-2.573 1.512-1.545.291-3.489-.64-3.546-1.861-6.805-2.675-3.26-.815-6.234-.815-5.605 0-8.293 1.978-2.687 1.978-2.687 5.235 0 2.443 1.601 4.072t4.918 2.21l11.438 2.211q7.435 1.396 11.266 5.119 3.832 3.722 3.832 10.004 0 8.493-6.52 13.321-6.519 4.828-17.385 4.828ZM7.549 384.782q-3.546 0-5.547-2.036Q0 380.71 0 376.871v-67.126q0-3.84 2.002-5.875 2.001-2.036 5.776-2.036h39.918q2.974 0 4.461 1.512t1.487 4.304q0 2.909-1.487 4.479-1.487 1.571-4.461 1.571H14.64v23.151h30.654q2.859 0 4.404 1.512 1.544 1.513 1.544 4.305 0 2.908-1.544 4.479-1.545 1.57-4.404 1.57H14.64v28.154q0 7.911-7.091 7.911Zm91.287.232q-12.581 0-21.56-5.176-8.979-5.178-13.783-14.659-4.804-9.481-4.804-22.395 0-9.656 2.746-17.392 2.745-7.737 7.892-13.263t12.639-8.492q7.491-2.967 16.87-2.967 6.291 0 12.353 1.629 6.062 1.629 10.638 4.653 2.402 1.513 3.202 3.665.801 2.152.343 4.188-.457 2.036-1.887 3.432t-3.546 1.571q-2.116.174-4.632-1.454-3.546-2.327-7.663-3.374-4.118-1.047-8.35-1.047-8.121 0-13.725 3.373-5.605 3.374-8.465 9.773-2.859 6.398-2.859 15.705 0 9.191 2.859 15.706 2.86 6.515 8.465 9.888 5.604 3.374 13.725 3.374 4.346 0 8.578-1.105 4.232-1.105 8.007-3.432 2.516-1.512 4.518-1.338 2.001.175 3.374 1.454 1.373 1.28 1.83 3.2.458 1.919-.229 3.955-.686 2.036-2.745 3.548-4.575 3.374-10.923 5.177-6.348 1.803-12.868 1.803Zm73.674 0q-12.582 0-21.561-5.176-8.979-5.178-13.782-14.659-4.804-9.481-4.804-22.395 0-9.656 2.745-17.392 2.745-7.737 7.892-13.263t12.639-8.492q7.492-2.967 16.871-2.967 6.29 0 12.352 1.629 6.063 1.629 10.638 4.653 2.402 1.513 3.202 3.665.801 2.152.343 4.188-.457 2.036-1.887 3.432t-3.546 1.571q-2.116.174-4.632-1.454-3.546-2.327-7.663-3.374-4.118-1.047-8.35-1.047-8.121 0-13.725 3.373-5.605 3.374-8.464 9.773-2.86 6.398-2.86 15.705 0 9.191 2.86 15.706 2.859 6.515 8.464 9.888 5.604 3.374 13.725 3.374 4.346 0 8.578-1.105 4.233-1.105 8.007-3.432 2.516-1.512 4.518-1.338 2.002.175 3.374 1.454 1.373 1.28 1.83 3.2.458 1.919-.229 3.955-.686 2.036-2.745 3.548-4.575 3.374-10.923 5.177-6.348 1.803-12.867 1.803Zm45.65-.232q-3.317 0-5.09-1.862-1.773-1.861-1.773-5.351v-69.221q0-3.606 1.773-5.526 1.773-1.919 4.632-1.919 2.631 0 3.946.989 1.316.989 3.146 3.315l43.807 57.82h-2.974V308q0-3.374 1.773-5.236 1.773-1.861 5.09-1.861t5.032 1.861q1.716 1.862 1.716 5.236v69.802q0 3.257-1.601 5.118-1.601 1.862-4.347 1.862-2.63 0-4.174-1.047-1.544-1.047-3.375-3.374l-43.692-57.819h2.859v55.027q0 3.49-1.715 5.351-1.716 1.862-5.033 1.862ZM363.347 383.851h-42.091q-3.66 0-5.319-1.687-1.658-1.687-1.658-4.944 0-1.978 1.029-3.839 1.029-1.862 2.974-3.956l22.99-24.896q5.261-5.584 7.549-10.179 2.288-4.596 2.288-9.249 0-5.817-3.603-8.842-3.603-3.024-10.466-3.024-3.889 0-7.778 1.105t-7.892 3.781q-2.059 1.396-3.832 1.163-1.772-.232-3.088-1.512-1.315-1.28-1.773-3.141-.457-1.862.172-3.781.629-1.92 2.688-3.316 4.918-3.374 11.037-5.119 6.12-1.745 12.296-1.745 8.693 0 14.641 2.676 5.947 2.676 9.035 7.795 3.089 5.118 3.089 12.448 0 4.886-1.544 9.539-1.545 4.654-4.69 9.424-3.145 4.769-8.178 10.121l-21.503 22.802v-3.956h33.627q3.088 0 4.69 1.513 1.601 1.512 1.601 4.537t-1.601 4.653q-1.602 1.629-4.69 1.629Zm38.269 1.163q-14.298 0-21.847-10.993-7.549-10.994-7.549-31.353 0-13.728 3.374-23.093 3.375-9.365 9.951-14.135 6.577-4.77 16.071-4.77 14.411 0 21.903 10.703 7.492 10.703 7.492 31.179 0 13.611-3.374 23.092-3.374 9.482-9.894 14.426-6.52 4.944-16.127 4.944Zm0-12.215q7.777 0 11.495-7.329 3.717-7.329 3.717-22.918 0-15.59-3.717-22.628-3.718-7.038-11.495-7.038-7.664 0-11.438 7.038-3.775 7.038-3.775 22.628 0 15.589 3.775 22.918 3.774 7.329 11.438 7.329Zm84.248 11.052h-42.091q-3.66 0-5.319-1.687-1.658-1.687-1.658-4.944 0-1.978 1.029-3.839 1.03-1.862 2.974-3.956l22.99-24.896q5.262-5.584 7.549-10.179 2.288-4.596 2.288-9.249 0-5.817-3.603-8.842-3.603-3.024-10.466-3.024-3.889 0-7.778 1.105-3.888 1.105-7.892 3.781-2.059 1.396-3.831 1.163-1.773-.232-3.089-1.512-1.315-1.28-1.773-3.141-.457-1.862.172-3.781.629-1.92 2.688-3.316 4.918-3.374 11.037-5.119 6.12-1.745 12.296-1.745 8.693 0 14.641 2.676 5.947 2.676 9.036 7.795 3.088 5.118 3.088 12.448 0 4.886-1.544 9.539-1.544 4.654-4.69 9.424-3.145 4.769-8.178 10.121l-21.503 22.802v-3.956h33.627q3.088 0 4.69 1.513 1.601 1.512 1.601 4.537t-1.601 4.653q-1.602 1.629-4.69 1.629Zm36.667 1.163q-6.176 0-12.81-1.628-6.634-1.629-11.552-4.886-2.288-1.513-3.089-3.49-.8-1.978-.4-3.781.4-1.804 1.716-3.083 1.315-1.28 3.317-1.513 2.001-.232 4.403 1.047 4.69 2.56 9.036 3.665 4.347 1.105 8.922 1.105 5.033 0 8.464-1.396t5.204-4.188q1.773-2.792 1.773-6.748 0-5.816-3.832-8.667-3.831-2.85-11.152-2.85h-7.32q-3.203 0-4.861-1.629-1.658-1.628-1.658-4.537 0-2.908 1.658-4.537t4.861-1.629h5.948q4.346 0 7.434-1.454 3.089-1.454 4.804-4.13 1.716-2.676 1.716-6.515 0-5.351-3.489-8.143-3.488-2.792-10.122-2.792-4.232 0-7.949.989-3.718.988-8.178 3.664-2.059 1.28-3.947 1.047-1.887-.233-3.145-1.512-1.258-1.28-1.716-3.083-.457-1.803.229-3.723.686-1.919 2.86-3.315 4.918-3.258 10.866-4.945 5.947-1.687 12.238-1.687 8.35 0 14.298 2.618 5.947 2.617 9.093 7.445 3.145 4.828 3.145 11.692 0 4.886-1.83 8.9t-5.147 6.806q-3.317 2.792-8.007 3.955v-1.396q8.236 1.396 12.811 6.922 4.575 5.526 4.575 13.786 0 7.213-3.546 12.564-3.546 5.352-10.065 8.202-6.52 2.85-15.556 2.85Z"/></g></svg>