<?xml version="1.0" encoding="UTF-8"?>
<svg style="isolation:isolate" viewBox="0 0 401 157" xmlns="http://www.w3.org/2000/svg">
<path d="m234.56 17.755h2.394v-14.563h-2.394v-1.496h12.169v3.79h-1.496v-2.294h-5.486v6.483h4.289v-2.094h1.496v6.084h-1.496v-2.493h-4.289v6.583h2.394v1.496h-7.681v-1.496h0.1zm13.266-10.773h4.888v8.379c0 1.596 0.898 2.494 2.194 2.494 0.798 0 1.895-0.399 2.993-1.297v-8.379h-2.195v-1.197h4.888v10.972h2.194v1.197h-4.887v-1.496c-1.497 1.297-2.993 1.795-4.389 1.795-2.195 0-3.491-1.197-3.491-3.69v-7.581h-2.195v-1.197zm15.96 10.972h2.194v-9.775h-2.194v-1.197h4.887v1.397c1.397-0.998 2.893-1.696 4.489-1.696 1.895 0 3.391 1.197 3.391 3.591v7.68h2.194v1.197h-6.782v-1.197h1.895v-7.181c0-1.696-0.898-2.494-2.194-2.494-0.898 0-1.995 0.499-2.993 1.297v8.378h1.995v1.197h-6.882v-1.197zm25.235 0h-1.197c-2.892 0-4.987-1.396-4.987-5.087 0-2.992 1.197-4.688 3.292-4.688 0.897 0 1.995 0.499 2.892 1.397v8.378zm-2.094-16.757h2.194v6.982c-1.197-0.997-2.494-1.596-3.691-1.596-2.992 0-5.386 2.793-5.386 6.284 0 3.89 2.693 6.284 6.982 6.284h6.983v-1.197h-2.195v-17.954h-4.887v1.197zm14.363 12.269v3.291c-0.798 0.599-1.396 0.898-1.995 0.898-0.898 0-1.596-0.698-1.596-1.596 0-1.297 0.998-1.995 3.591-2.593zm-5.586-3.99c1.496-0.898 2.494-1.297 3.491-1.297 1.596 0 2.095 0.998 2.095 2.394v1.596l-2.693 0.698c-2.394 0.599-3.391 1.596-3.391 3.392 0 1.795 1.197 3.191 2.792 3.191 1.098 0 2.095-0.698 3.591-1.795 0.599 1.297 1.297 1.795 2.195 1.795 0.798 0 1.795-0.399 2.693-0.997v-0.798c-0.299 0.1-0.998 0.2-1.297 0.2-0.698 0-1.297-0.798-1.297-1.995v-4.988c0-2.693-1.496-4.289-3.79-4.289-1.496 0-3.192 0.698-4.688 1.995l0.299 0.898zm16.458 9.875c-2.693-0.599-4.588-3.192-4.588-6.584 0-3.59 2.394-6.184 5.785-6.184 0.998 0 1.796 0.2 3.192 0.798l0.2-0.698h0.798v3.79h-0.798c-0.3-1.795-1.596-2.693-2.993-2.693-1.995 0-3.291 1.397-3.291 4.588 0 3.591 1.396 5.487 3.89 5.487 1.995 0 3.192-1.297 3.491-1.297 0.199 0 0.399 0.499 0.399 0.698 0 0.499-1.895 2.194-4.987 2.194l-0.399 0.798c1.097 0.1 1.994 0.998 1.994 2.195 0 1.297-1.296 3.192-5.087 2.892v-1.097c1.896 0 2.893-0.399 2.893-1.296 0-0.599-0.499-0.998-1.696-1.098l1.197-2.493zm13.666-5.885v3.291c-0.798 0.599-1.397 0.898-1.995 0.898-0.898 0-1.596-0.698-1.596-1.596 0-1.297 1.097-1.995 3.591-2.593zm-5.486-3.99c1.496-0.898 2.493-1.297 3.491-1.297 1.596 0 2.094 0.998 2.094 2.394v1.596l-2.693 0.698c-2.394 0.599-3.391 1.596-3.391 3.392 0 1.795 1.197 3.191 2.793 3.191 1.097 0 2.094-0.698 3.591-1.795 0.598 1.297 1.296 1.795 2.194 1.795 0.798 0 1.795-0.399 2.693-0.997v-0.798c-0.299 0.1-0.997 0.2-1.297 0.2-0.698 0-1.296-0.798-1.296-1.995v-4.988c0-2.693-1.497-4.289-3.791-4.289-1.496 0-3.192 0.698-4.688 1.995l0.3 0.898zm1.196-5.486c0.1-0.599 0.599-1.097 1.098-1.097 0.897 0 2.294 1.097 3.69 1.097 1.397 0 2.294-1.097 2.693-3.292h-0.997c-0.2 0.798-0.599 1.097-1.197 1.097-0.898 0-2.095-1.097-3.491-1.097-1.397 0-2.594 1.496-2.594 3.292h0.798zm13.666 9.077c0-3.292 1.396-5.287 3.69-5.287s3.691 1.995 3.691 5.287c0 3.291-1.397 5.286-3.691 5.286s-3.69-1.995-3.69-5.286zm-2.993 0c0 3.591 2.893 6.483 6.683 6.483 3.791 0 6.683-2.793 6.683-6.483 0-3.591-2.892-6.484-6.683-6.484-3.79 0.1-6.683 2.893-6.683 6.484zm-92.763 23.839c0.997-1.197 1.695-1.596 2.693-1.596 2.094 0 3.391 2.194 3.391 5.586 0 2.693-1.097 4.788-3.192 4.788-1.097 0-2.194-0.699-2.892-1.796v-6.982zm-4.888 16.757h6.982v-1.197h-2.094v-6.583c0.897 0.698 1.995 0.998 3.191 0.998 4.489 0 5.885-3.691 5.885-6.683 0-4.489-2.992-6.185-5.486-6.185-0.698 0-1.296 0.1-1.895 0.399-0.598 0.2-1.097 0.599-1.695 1.197v-1.197h-4.888v1.197h2.194v16.957h-2.194v1.097zm21.844-12.867v3.292c-0.798 0.598-1.396 0.897-1.995 0.897-0.897 0-1.595-0.698-1.595-1.596 0.099-1.196 1.097-1.994 3.59-2.593zm-5.486-3.89c1.497-0.898 2.494-1.297 3.491-1.297 1.596 0 2.095 0.998 2.095 2.394v1.596l-2.693 0.698c-2.394 0.599-3.391 1.596-3.391 3.392 0 1.795 1.197 3.192 2.793 3.192 1.097 0 2.094-0.699 3.59-1.796 0.599 1.297 1.297 1.796 2.195 1.796 0.798 0 1.795-0.399 2.693-0.998v-0.798c-0.299 0.1-0.998 0.2-1.297 0.2-0.698 0-1.296-0.798-1.296-1.995v-4.988c0-2.693-1.497-4.289-3.791-4.289-1.496 0-3.192 0.699-4.688 1.995l0.299 0.898zm11.571 8.478h2.194v-9.775h-2.194v-1.197h4.887v2.095h0.1c1.496-1.795 2.195-2.394 2.993-2.394 0.698 0 1.396 0.399 2.094 1.197-0.199 1.197-0.598 2.194-1.097 2.992-0.698-1.296-1.097-1.695-1.895-1.695s-1.397 0.498-2.095 1.496v7.481h2.195v1.197h-7.082v-1.397h-0.1zm17.356-4.588v3.292c-0.798 0.598-1.397 0.897-1.995 0.897-0.898 0-1.596-0.698-1.596-1.596 0-1.196 0.997-1.994 3.591-2.593zm-5.486-3.89c1.496-0.898 2.493-1.297 3.491-1.297 1.596 0 2.094 0.998 2.094 2.394v1.596l-2.693 0.698c-2.394 0.599-3.391 1.596-3.391 3.392 0 1.795 1.197 3.192 2.793 3.192 1.097 0 2.094-0.699 3.591-1.796 0.598 1.297 1.296 1.796 2.194 1.796 0.798 0 1.795-0.399 2.693-0.998v-0.798c-0.299 0.1-0.997 0.2-1.296 0.2-0.699 0-1.297-0.798-1.297-1.995v-4.988c0-2.693-1.496-4.289-3.791-4.289-1.496 0-3.191 0.699-4.688 1.995l0.3 0.898zm26.233 3.89v3.292c-0.798 0.598-1.397 0.897-1.995 0.897-0.898 0-1.596-0.698-1.596-1.596 0-1.196 0.997-1.994 3.591-2.593zm-5.486-3.89c1.496-0.898 2.493-1.297 3.491-1.297 1.596 0 2.095 0.998 2.095 2.394v1.596l-2.694 0.698c-2.393 0.599-3.391 1.596-3.391 3.392 0 1.795 1.197 3.192 2.793 3.192 1.097 0 2.095-0.699 3.591-1.796 0.598 1.297 1.297 1.796 2.194 1.796 0.798 0 1.796-0.399 2.693-0.998v-0.798c-0.299 0.1-0.997 0.2-1.296 0.2-0.699 0-1.297-0.798-1.297-1.995v-4.988c0-2.693-1.496-4.289-3.79-4.289-1.497 0-3.192 0.699-4.688 1.995l0.299 0.898zm35.41 7.88c-1.696 1.396-3.891 2.095-6.384 2.095-5.187 0-8.878-3.99-8.878-8.878 0-5.286 3.791-9.276 9.077-9.276 1.497 0 2.893 0.299 4.19 0.798l0.199-0.998h1.097v5.087h-1.296c-0.499-2.194-2.095-3.391-4.289-3.391-3.392 0-5.586 2.893-5.586 7.381 0 4.688 2.493 7.78 6.384 7.78 1.695 0 3.491-0.598 5.486-2.094v1.496zm1.496 0.598h2.094v-9.775h-2.094v-1.197h4.788v10.972h2.094v1.197h-6.882v-1.197zm4.788-15.36c0 0.897-0.798 1.695-1.696 1.695s-1.696-0.798-1.696-1.695c0-0.898 0.798-1.696 1.696-1.696 0.997 0.1 1.696 0.798 1.696 1.696zm6.683 8.278c0.199-2.094 0.798-3.092 2.493-3.092 1.496 0 2.494 1.097 2.693 3.092h-5.186zm8.079 1.197c-0.499-3.491-2.394-5.486-5.386-5.486-3.392 0-5.586 2.394-5.586 6.085 0 3.391 2.294 6.783 6.384 6.783 1.695 0 2.593-0.3 4.588-1.596l0.199-1.297c-1.496 0.898-2.792 1.396-4.089 1.396-2.594 0-4.189-2.394-4.189-5.885h8.079zm-8.678-7.381l3.092-2.294 3.092 2.294h1.098l-3.392-4.688h-1.596l-3.391 4.688h1.097zm9.975 13.266h2.194v-9.775h-2.194v-1.197h4.887v1.397c1.397-0.998 2.893-1.696 4.489-1.696 1.895 0 3.391 1.197 3.391 3.591v7.78h2.195v1.197h-6.783v-1.197h1.895v-7.182c0-1.695-0.898-2.493-2.194-2.493-0.898 0-1.995 0.498-2.993 1.296v8.479h1.995v1.197h-6.882v-1.397zm26.233-7.481h-0.798c-0.299-1.795-1.596-2.693-2.893-2.693-1.995 0-3.291 1.397-3.291 4.589 0 3.59 1.396 5.486 3.89 5.486 1.995 0 3.192-1.297 3.491-1.297 0.199 0 0.399 0.499 0.399 0.698 0 0.499-1.995 2.195-4.788 2.195-3.391 0-5.985-2.893-5.985-6.683 0-3.591 2.394-6.185 5.785-6.185 0.998 0 1.796 0.2 3.093 0.798l0.199-0.698h0.798v3.79h0.1zm2.094 7.481h2.095v-9.775h-2.095v-1.197h4.788v10.972h2.095v1.197h-6.883v-1.197zm4.888-15.36c0 0.897-0.798 1.695-1.696 1.695-0.897 0-1.695-0.798-1.695-1.695 0-0.898 0.798-1.696 1.695-1.696 0.898 0.1 1.696 0.798 1.696 1.696zm9.675 10.772v3.292c-0.798 0.598-1.396 0.897-1.995 0.897-0.897 0-1.595-0.698-1.595-1.596 0-1.196 1.097-1.994 3.59-2.593zm-5.486-3.89c1.497-0.898 2.494-1.297 3.491-1.297 1.596 0 2.095 0.998 2.095 2.394v1.596l-2.693 0.698c-2.394 0.599-3.391 1.596-3.391 3.392 0 1.795 1.197 3.192 2.793 3.192 1.097 0 2.094-0.699 3.59-1.796 0.599 1.297 1.297 1.796 2.195 1.796 0.798 0 1.795-0.399 2.693-0.998v-0.798c-0.299 0.1-0.998 0.2-1.297 0.2-0.698 0-1.296-0.798-1.296-1.995v-4.988c0-2.693-1.497-4.289-3.791-4.289-1.496 0-3.192 0.699-4.688 1.995l0.299 0.898zm-152.71 29.724c0.2-2.094 0.798-3.092 2.494-3.092 1.496 0 2.494 1.097 2.693 3.092h-5.187zm7.98 1.097c-0.499-3.491-2.394-5.486-5.386-5.486-3.392 0-5.586 2.394-5.586 6.085 0 3.391 2.294 6.783 6.384 6.783 1.695 0 2.593-0.3 4.588-1.596l0.2-1.297c-1.497 0.898-2.793 1.396-4.09 1.396-2.593 0-4.189-2.393-4.189-5.885h8.079zm16.159 1.397v3.292c-0.798 0.598-1.397 0.897-1.995 0.897-0.898 0-1.596-0.698-1.596-1.596 0-1.296 0.998-1.995 3.591-2.593zm-5.486-3.99c1.496-0.898 2.494-1.297 3.491-1.297 1.596 0 2.095 0.998 2.095 2.394v1.596l-2.693 0.698c-2.394 0.599-3.392 1.596-3.392 3.392 0 1.795 1.197 3.192 2.793 3.192 1.097 0 2.095-0.699 3.591-1.796 0.598 1.297 1.297 1.796 2.194 1.796 0.798 0 1.796-0.399 2.693-0.998v-0.798c-0.299 0.1-0.997 0.2-1.296 0.2-0.698 0-1.297-0.798-1.297-1.995v-4.988c0-2.693-1.496-4.289-3.79-4.289-1.496 0-3.192 0.699-4.688 1.995l0.299 0.898zm20.348 8.179h2.394v-13.964h-4.489v2.394h-1.496v-5.287h1.496v0.898h11.87v-0.898h1.496v5.287h-1.496v-2.394h-4.488v13.964h2.393v1.496h-7.68v-1.496zm12.867-6.683c0.2-2.094 0.798-3.092 2.494-3.092 1.496 0 2.494 1.097 2.693 3.092h-5.187zm7.98 1.097c-0.499-3.491-2.394-5.486-5.386-5.486-3.392 0-5.586 2.394-5.586 6.085 0 3.391 2.294 6.783 6.384 6.783 1.695 0 2.593-0.3 4.588-1.596l0.199-1.297c-1.496 0.898-2.792 1.396-4.089 1.396-2.594 0-4.189-2.393-4.189-5.885h8.079zm11.87-1.595h-0.798c-0.299-1.796-1.596-2.694-2.893-2.694-1.995 0-3.291 1.397-3.291 4.589 0 3.591 1.396 5.486 3.89 5.486 1.995 0 3.191-1.297 3.491-1.297 0.199 0 0.399 0.499 0.399 0.698 0 0.499-1.995 2.195-4.788 2.195-3.391 0-5.985-2.893-5.985-6.683 0-3.591 2.394-6.185 5.785-6.185 0.998 0 1.796 0.2 3.093 0.798l0.199-0.698h0.798v3.791h0.1zm1.596 7.48h2.194v-9.775h-2.194v-1.197h4.887v1.397c1.397-0.998 2.893-1.696 4.489-1.696 1.895 0 3.391 1.197 3.391 3.591v7.78h2.195v1.097h-6.783v-1.197h1.895v-7.181c0-1.696-0.898-2.494-2.194-2.494-0.898 0-1.995 0.499-2.993 1.297v8.478h1.995v1.097h-6.882v-1.197zm19.251-4.887c0-3.292 1.396-5.287 3.69-5.287s3.691 1.995 3.691 5.287-1.397 5.286-3.691 5.286-3.69-1.994-3.69-5.286zm-2.993 0c0 3.591 2.893 6.483 6.683 6.483 3.791 0 6.683-2.792 6.683-6.483 0-3.591-2.892-6.484-6.683-6.484-3.79 0-6.683 2.893-6.683 6.484zm14.962 4.887h2.195v-16.757h-2.195v-1.197h4.888v17.954h2.094v1.197h-6.882v-1.197h-0.1zm11.371-4.887c0-3.292 1.397-5.287 3.691-5.287s3.69 1.995 3.69 5.287-1.396 5.286-3.69 5.286-3.691-1.994-3.691-5.286zm-2.992 0c0 3.591 2.892 6.483 6.683 6.483 3.79 0 6.683-2.792 6.683-6.483 0-3.591-2.893-6.484-6.683-6.484-3.691 0-6.683 2.893-6.683 6.484zm18.154-1.796c0-2.194 0.997-3.491 2.693-3.491 1.596 0 2.593 1.397 2.593 3.691 0 2.194-0.997 3.591-2.593 3.591-1.696-0.1-2.693-1.496-2.693-3.791zm8.977-4.289h-3.791c-0.399 0-0.698-0.099-1.097-0.199s-0.898-0.2-1.696-0.2c-2.992 0-5.186 1.896-5.186 4.688 0 2.295 1.396 3.891 3.989 4.589v0.1l-0.399 0.099c-1.396 0.399-2.094 1.097-2.094 1.895 0 0.699 0.499 1.397 1.496 2.095-2.394 0.798-3.591 1.895-3.591 3.092 0 1.496 2.195 3.392 5.985 3.392 3.69 0 6.084-1.596 6.084-3.99 0-0.798-0.199-1.297-0.798-1.995-1.895-1.895-6.683-1.796-6.683-3.292 0-0.199 0.1-0.199 0.2-0.399 0.898-0.897 3.092-0.199 5.286-2.394 0.798-0.798 1.297-2.094 1.297-3.192 0-1.097-0.399-2.094-1.197-2.992h2.195v-1.297zm-7.681 13.466c3.89 1.097 5.287 1.696 5.287 2.793 0 0.499-0.399 0.997-0.998 1.197-0.598 0.199-1.795 0.399-2.793 0.399-2.094 0-3.491-0.798-3.491-1.995 0-0.898 0.499-1.496 1.995-2.394zm8.778-2.494h2.095v-9.775h-2.095v-1.197h4.788v10.972h2.094v1.197h-6.882v-1.197zm4.887-15.261c0 0.898-0.798 1.696-1.695 1.696-0.898 0-1.696-0.798-1.696-1.696 0-0.897 0.798-1.695 1.696-1.695 0.897 0 1.695 0.698 1.695 1.695zm9.775 10.773v3.292c-0.797 0.598-1.396 0.897-1.994 0.897-0.898 0-1.596-0.698-1.596-1.596 0-1.296 0.997-1.995 3.59-2.593zm-5.585-3.99c1.496-0.898 2.493-1.297 3.491-1.297 1.596 0 2.094 0.998 2.094 2.394v1.596l-2.693 0.698c-2.394 0.599-3.391 1.596-3.391 3.392 0 1.795 1.197 3.192 2.793 3.192 1.097 0 2.095-0.699 3.591-1.796 0.598 1.297 1.296 1.796 2.194 1.796 0.798 0 1.796-0.399 2.693-0.998v-0.798c-0.299 0.1-0.997 0.2-1.296 0.2-0.699 0-1.297-0.798-1.297-1.995v-4.988c0-2.693-1.496-4.289-3.79-4.289-1.497 0-3.192 0.699-4.689 1.995l0.3 0.898z" fill="#fff" fill-rule="evenodd"/>
<path d="m52.128 2.095v14.563h-30.123v14.163h30.123v14.563h-30.123v29.425h-21.944v-72.714h52.067zm79.697 67.228c-9.576 4.888-19.052 6.484-28.627 6.484-25.635 0-41.096-15.162-41.096-37.405 0-25.734 19.451-37.405 41.395-37.405 12.269 0 22.243 3.392 28.029 5.486v19.351c-4.09-2.493-12.269-7.88-23.042-7.88-12.468 0-24.038 7.88-24.038 20.648-0.1 11.171 9.376 20.248 22.742 20.248 11.67 0 20.248-5.187 24.537-7.88v18.353h0.1zm84.385-67.228v17.655h-26.632v54.96h-21.944v-54.96h-26.633v-17.655h75.209z" fill="#fff" fill-rule="evenodd"/>
<path d="m11.232 103.04c1.097 0 2.194 0.1 3.192 0.399 0.997 0.3 2.194 0.699 3.391 1.297v3.491c-1.197-0.698-2.294-1.197-3.291-1.496-0.998-0.299-2.095-0.499-3.192-0.499-1.397 0-2.594 0.3-3.691 0.898-1.097 0.599-1.995 1.397-2.593 2.394-0.599 0.997-0.898 2.194-0.898 3.491s0.299 2.494 0.898 3.491c0.598 0.998 1.496 1.796 2.593 2.394 1.097 0.599 2.394 0.798 3.791 0.798 1.097 0 2.094-0.199 3.092-0.499 0.997-0.299 2.194-0.897 3.69-1.695v3.491c-1.296 0.698-2.394 1.097-3.491 1.396s-2.294 0.399-3.69 0.399c-2.095 0-3.891-0.399-5.486-1.197-1.596-0.798-2.893-1.995-3.791-3.491s-1.396-3.192-1.396-4.987c0-1.995 0.498-3.691 1.396-5.287s2.294-2.793 3.89-3.591 3.491-1.197 5.586-1.197zm16.458 6.384c1.397 0 2.594 0.299 3.691 0.798 1.097 0.599 1.995 1.397 2.593 2.394 0.599 0.998 0.898 2.194 0.898 3.491s-0.299 2.494-0.898 3.491c-0.598 0.998-1.396 1.796-2.593 2.394-1.097 0.599-2.394 0.898-3.691 0.898-1.396 0-2.593-0.299-3.69-0.898-1.098-0.598-1.995-1.396-2.494-2.394-0.599-0.997-0.898-2.194-0.898-3.491s0.299-2.493 0.898-3.491c0.598-0.997 1.496-1.795 2.593-2.394 1.097-0.598 2.195-0.798 3.591-0.798zm-3.591 6.683c0 1.297 0.3 2.294 0.998 3.092s1.496 1.197 2.593 1.197 1.995-0.399 2.594-1.097c0.598-0.698 0.997-1.795 0.997-3.192 0-1.297-0.299-2.294-0.997-3.092-0.699-0.798-1.497-1.097-2.594-1.097-0.997 0-1.895 0.399-2.494 1.097-0.598 0.698-1.097 1.895-1.097 3.092zm20.947-6.683c0.997 0 1.795 0.2 2.494 0.698 0.698 0.499 1.197 1.098 1.595 1.896 0.699-0.898 1.497-1.596 2.195-1.995s1.496-0.599 2.394-0.599c1.396 0 2.493 0.399 3.291 1.297s1.297 2.095 1.297 3.591v8.279h-3.391v-7.781c0-0.897-0.2-1.595-0.599-2.094s-0.897-0.798-1.695-0.798c-0.998 0-2.095 0.698-2.993 1.995v8.578h-3.391v-7.78c0-0.898-0.2-1.596-0.599-2.095s-0.997-0.798-1.596-0.798c-0.598 0-1.097 0.2-1.496 0.499s-0.997 0.798-1.496 1.496v8.578h-3.391v-12.967h3.291v1.796c0.599-0.699 1.297-1.197 1.895-1.596 0.599 0 1.297-0.2 2.195-0.2zm23.241 0c1.895 0 3.391 0.599 4.488 1.895 1.097 1.297 1.696 2.893 1.696 4.888 0 1.297-0.299 2.494-0.798 3.491-0.499 0.998-1.297 1.795-2.294 2.394-0.998 0.598-2.095 0.898-3.292 0.898-0.997 0-1.995-0.3-2.992-0.798v7.082h-3.392v-19.551h3.392v0.798c0.898-0.698 1.995-1.097 3.192-1.097zm-3.292 10.274c0.898 0.499 1.696 0.698 2.394 0.698 1.097 0 1.895-0.399 2.593-1.197 0.599-0.798 0.998-1.795 0.998-2.992 0-1.297-0.299-2.394-0.898-3.092-0.598-0.798-1.396-1.097-2.494-1.097-0.399 0-0.797 0.099-1.196 0.199s-0.898 0.399-1.497 0.898v6.583h0.1zm15.461-9.975v7.98c0 0.798 0.199 1.496 0.598 1.895s0.998 0.699 1.696 0.699c0.598 0 1.097-0.2 1.696-0.499 0.498-0.399 0.997-0.798 1.296-1.496v-8.579h3.392v12.967h-3.392v-1.795c-1.197 1.297-2.593 1.995-3.99 1.995-1.396 0-2.493-0.499-3.391-1.397-0.898-0.897-1.297-2.094-1.297-3.59v-8.18h3.392zm15.56-3.491h0.299v3.491h4.489v2.594h-4.489v5.985c0 0.598 0.2 1.097 0.499 1.396 0.399 0.399 0.798 0.499 1.396 0.499 0.798 0 1.696-0.299 2.793-0.898v2.693c-1.197 0.499-2.394 0.798-3.491 0.798-1.496 0-2.593-0.399-3.391-1.197s-1.197-1.895-1.197-3.192v-6.184h-1.995v-0.499l5.087-5.486zm11.67 3.192c1.696 0 2.893 0.399 3.791 1.097 0.897 0.699 1.296 1.696 1.296 2.993v6.384c0 0.498 0.2 0.698 0.599 0.698 0.199 0 0.399-0.1 0.698-0.2 0.299-0.099 0.599-0.299 0.798-0.498v1.994c-1.197 0.699-2.294 1.098-3.292 1.098-0.598 0-1.097-0.1-1.396-0.3-0.299-0.199-0.599-0.598-0.698-1.097-1.297 0.898-2.594 1.397-3.89 1.397-0.898 0-1.696-0.3-2.394-0.898-0.698-0.599-0.998-1.396-0.998-2.294 0-1.097 0.3-1.995 0.998-2.693 0.698-0.699 1.795-1.197 3.491-1.696l2.793-0.798v-0.598c0-1.297-0.798-1.896-2.294-1.896-0.798 0-1.596 0.2-2.394 0.499-0.798 0.399-1.497 0.898-2.095 1.596v-3.092c1.297-1.097 2.992-1.696 4.987-1.696zm-2.094 9.775c0 0.499 0.199 0.898 0.498 1.098 0.3 0.299 0.699 0.399 1.098 0.399 0.798 0 1.496-0.3 2.294-0.998v-3.391c-0.998 0.299-1.696 0.598-2.195 0.897-0.498 0.3-0.897 0.599-1.197 0.898-0.299 0.299-0.498 0.698-0.498 1.097zm17.355-9.775c1.497 0 2.893 0.299 4.09 0.898v2.893c-1.197-0.699-2.394-1.098-3.491-1.098-1.197 0-2.095 0.399-2.893 1.098-0.798 0.698-1.097 1.695-1.097 2.992 0 1.197 0.399 2.194 1.097 2.893 0.698 0.698 1.696 1.097 2.993 1.097 0.897 0 2.094-0.299 3.591-0.898v2.793c-1.297 0.499-2.793 0.798-4.489 0.798l-0.2 0.399c1.098 0.399 1.696 0.997 1.696 1.895 0 0.798-0.299 1.397-0.798 1.795-0.499 0.499-1.396 0.699-2.493 0.699-0.399 0-0.998-0.1-1.596-0.2v-1.496l0.598 0.1c1.097 0 1.696-0.299 1.696-0.898 0-0.199-0.1-0.399-0.3-0.499-0.199-0.099-0.498-0.199-0.997-0.199h-0.1l0.798-1.796c-1.596-0.299-2.793-1.097-3.79-2.194-0.898-1.197-1.397-2.593-1.397-4.189 0-2.095 0.599-3.691 1.896-4.988 1.296-1.296 3.092-1.895 5.186-1.895zm11.571 0c1.696 0 2.893 0.399 3.79 1.097 0.898 0.699 1.297 1.696 1.297 2.993v6.384c0 0.498 0.199 0.698 0.598 0.698 0.2 0 0.399-0.1 0.699-0.2 0.299-0.099 0.598-0.299 0.798-0.498v1.994c-1.197 0.699-2.295 1.098-3.292 1.098-0.598 0-1.097-0.1-1.396-0.3-0.3-0.199-0.599-0.598-0.699-1.097-1.296 0.898-2.593 1.397-3.89 1.397-0.897 0-1.695-0.3-2.394-0.898-0.698-0.599-0.997-1.396-0.997-2.294 0-1.097 0.299-1.995 0.997-2.693 0.699-0.699 1.796-1.197 3.491-1.696l2.793-0.798v-0.598c0-1.297-0.798-1.896-2.294-1.896-0.798 0-1.596 0.2-2.394 0.499-0.798 0.399-1.496 0.898-2.094 1.596v-3.092c1.296-1.097 2.992-1.696 4.987-1.696zm4.887-5.486c0 1.197-0.299 2.195-0.797 2.893-0.499 0.698-1.197 0.997-1.995 0.997-0.399 0-0.798-0.099-1.197-0.199s-0.798-0.299-1.098-0.499c-0.399-0.199-0.698-0.299-0.997-0.399s-0.598-0.199-0.898-0.199c-0.299 0-0.598 0.099-0.798 0.299-0.199 0.199-0.299 0.499-0.399 0.898h-1.496c0.1-1.197 0.399-2.195 0.898-2.793 0.499-0.699 1.197-0.998 1.995-0.998 0.499 0 1.296 0.2 2.194 0.599 0.399 0.199 0.798 0.299 1.097 0.498 0.399 0.2 0.699 0.2 0.898 0.2 0.599 0 0.998-0.399 1.197-1.297h1.396zm-6.982 15.261c0 0.499 0.2 0.898 0.499 1.098 0.299 0.299 0.698 0.399 1.097 0.399 0.798 0 1.496-0.3 2.294-0.998v-3.391c-0.997 0.299-1.695 0.598-2.194 0.897-0.499 0.3-0.898 0.599-1.197 0.898s-0.499 0.698-0.499 1.097zm17.556-9.775c1.396 0 2.593 0.299 3.69 0.798 1.097 0.599 1.995 1.397 2.594 2.394 0.598 0.998 0.897 2.194 0.897 3.491s-0.299 2.494-0.897 3.491c-0.599 0.998-1.397 1.796-2.594 2.394-1.097 0.599-2.394 0.898-3.69 0.898-1.397 0-2.594-0.299-3.691-0.898-1.097-0.598-1.995-1.396-2.494-2.394-0.598-0.997-0.897-2.194-0.897-3.491s0.299-2.493 0.897-3.491c0.599-0.997 1.497-1.795 2.594-2.394 1.097-0.598 2.294-0.798 3.591-0.798zm-3.492 6.683c0 1.297 0.3 2.294 0.998 3.092s1.496 1.197 2.593 1.197c1.098 0 1.995-0.399 2.594-1.097 0.598-0.698 0.997-1.795 0.997-3.192 0-1.297-0.299-2.294-0.997-3.092-0.699-0.798-1.496-1.097-2.594-1.097-0.997 0-1.895 0.399-2.493 1.097-0.599 0.698-1.098 1.895-1.098 3.092zm31.819-13.067c1.098 0 2.195 0.1 3.192 0.399 0.998 0.3 2.195 0.699 3.392 1.297v3.491c-1.197-0.698-2.295-1.197-3.292-1.496s-2.095-0.499-3.192-0.499c-1.396 0-2.593 0.3-3.69 0.898-1.098 0.599-1.995 1.397-2.594 2.394-0.598 0.997-0.898 2.194-0.898 3.491s0.3 2.494 0.898 3.491c0.599 0.998 1.496 1.796 2.594 2.394 1.097 0.599 2.393 0.798 3.79 0.798 1.097 0 2.095-0.199 3.092-0.499 0.997-0.299 2.194-0.897 3.691-1.695v3.491c-1.297 0.698-2.394 1.097-3.492 1.396-1.097 0.299-2.294 0.399-3.69 0.399-2.095 0-3.89-0.399-5.486-1.197s-2.893-1.995-3.79-3.491c-0.898-1.496-1.397-3.192-1.397-4.987 0-1.995 0.499-3.691 1.397-5.287 0.897-1.596 2.294-2.793 3.89-3.591 1.695-0.798 3.491-1.197 5.585-1.197zm11.87 0.699c0.499 0 0.998 0.199 1.397 0.598s0.598 0.798 0.598 1.397c0 0.498-0.199 0.997-0.598 1.396s-0.798 0.599-1.397 0.599c-0.499 0-0.997-0.2-1.396-0.599s-0.599-0.798-0.599-1.396c0-0.499 0.2-0.998 0.599-1.397s0.897-0.598 1.396-0.598zm1.696 5.984v12.967h-3.392v-12.967h3.392zm9.376-0.299c1.895 0 3.391 0.599 4.489 1.796 1.097 1.197 1.695 2.892 1.695 5.087v0.498h-9.176c0.099 1.197 0.598 2.095 1.296 2.694 0.698 0.598 1.696 0.897 2.993 0.897 0.798 0 1.596-0.099 2.394-0.399 0.798-0.299 1.496-0.698 2.294-1.296v2.493c-1.496 1.097-3.392 1.596-5.486 1.596-2.095 0-3.691-0.598-4.988-1.895-1.296-1.197-1.895-2.893-1.895-4.888 0-1.994 0.599-3.59 1.796-4.787 1.097-1.098 2.593-1.796 4.588-1.796zm2.893 5.386c-0.1-0.897-0.399-1.695-0.898-2.194s-1.097-0.798-1.995-0.798-1.596 0.299-2.095 0.798c-0.498 0.499-0.897 1.297-0.997 2.294h5.985v-0.1zm13.465-5.386c1.397 0 2.494 0.499 3.292 1.397 0.798 0.897 1.197 2.094 1.197 3.591v8.278h-3.392v-7.88c0-0.797-0.199-1.496-0.598-1.994-0.399-0.499-0.997-0.699-1.596-0.699-0.499 0-0.997 0.2-1.496 0.499s-0.998 0.798-1.496 1.596v8.578h-3.392v-12.967h3.392v1.796c0.598-0.699 1.296-1.297 1.895-1.596 0.698-0.399 1.396-0.599 2.194-0.599zm11.371-3.192h0.3v3.491h4.488v2.594h-4.488v5.985c0 0.598 0.199 1.097 0.498 1.396 0.399 0.399 0.798 0.499 1.397 0.499 0.798 0 1.695-0.299 2.793-0.898v2.693c-1.197 0.499-2.394 0.798-3.492 0.798-1.496 0-2.593-0.399-3.391-1.197s-1.197-1.895-1.197-3.192v-6.184h-1.995v-0.499l5.087-5.486zm12.768-2.493l-3.99 4.189h-1.895l1.995-4.189h3.89zm-2.294 5.984v12.967h-3.392v-12.967h3.392zm8.977-6.683c0.399 0 0.798 0 1.197 0.1s0.798 0.2 0.997 0.299v2.793c-0.499-0.099-0.997-0.199-1.496-0.199-0.798 0-1.396 0.199-1.795 0.598s-0.599 1.098-0.599 2.095v0.898h2.194v2.593h-2.194v10.473h-3.391v-10.373h-1.895v-2.594h1.895v-0.997c0-1.795 0.498-3.092 1.396-4.189 0.898-0.998 2.195-1.497 3.691-1.497zm4.189 0.699c0.499 0 0.998 0.199 1.397 0.598 0.398 0.399 0.598 0.798 0.598 1.397 0 0.498-0.2 0.997-0.598 1.396-0.399 0.399-0.798 0.599-1.397 0.599-0.499 0-0.997-0.2-1.396-0.599s-0.599-0.798-0.599-1.396c0-0.499 0.2-0.998 0.599-1.397s0.897-0.598 1.396-0.598zm1.696 5.984v12.967h-3.392v-12.967h3.392zm9.675-0.299c1.496 0 2.893 0.299 4.09 0.898v2.893c-1.197-0.699-2.394-1.098-3.491-1.098-1.197 0-2.095 0.399-2.893 1.098-0.798 0.698-1.097 1.695-1.097 2.992 0 1.197 0.399 2.194 1.097 2.893 0.698 0.698 1.696 1.097 2.992 1.097 0.898 0 2.095-0.299 3.591-0.898v2.793c-1.297 0.499-2.693 0.798-4.189 0.798-2.095 0-3.791-0.599-5.087-1.796-1.297-1.196-1.995-2.792-1.995-4.787 0-2.095 0.598-3.691 1.895-4.988 1.297-1.296 3.092-1.895 5.087-1.895zm11.571 0c1.695 0 2.892 0.399 3.79 1.097 0.898 0.699 1.297 1.696 1.297 2.993v6.384c0 0.498 0.199 0.698 0.598 0.698 0.2 0 0.399-0.1 0.698-0.2 0.3-0.099 0.599-0.299 0.798-0.498v1.994c-1.197 0.699-2.294 1.098-3.291 1.098-0.599 0-1.098-0.1-1.397-0.3-0.299-0.199-0.598-0.598-0.698-1.097-1.297 0.898-2.593 1.397-3.89 1.397-0.898 0-1.696-0.3-2.394-0.898-0.698-0.599-0.997-1.396-0.997-2.294 0-1.097 0.299-1.995 0.997-2.693 0.698-0.699 1.795-1.197 3.491-1.696l2.793-0.798v-0.598c0-1.297-0.798-1.896-2.294-1.896-0.798 0-1.596 0.2-2.394 0.499-0.798 0.399-1.496 0.898-2.095 1.596v-3.092c1.397-1.097 3.092-1.696 4.988-1.696zm-2.095 9.775c0 0.499 0.199 0.898 0.499 1.098 0.299 0.299 0.698 0.399 1.097 0.399 0.798 0 1.496-0.3 2.294-0.998v-3.391c-0.997 0.299-1.696 0.598-2.194 0.897-0.499 0.3-0.898 0.599-1.197 0.898-0.3 0.299-0.499 0.698-0.499 1.097zm22.842-15.959l11.471 13.565v-13.565h3.69v19.45h-3.192l-11.57-13.765v13.765h-3.691v-19.35h3.292v-0.1zm23.64 6.184c1.695 0 2.892 0.399 3.79 1.097 0.898 0.699 1.297 1.696 1.297 2.993v6.384c0 0.498 0.199 0.698 0.598 0.698 0.2 0 0.399-0.1 0.698-0.2 0.299-0.099 0.599-0.299 0.798-0.498v1.994c-1.197 0.699-2.294 1.098-3.291 1.098-0.599 0-1.098-0.1-1.397-0.3-0.299-0.199-0.598-0.598-0.698-1.097-1.297 0.898-2.593 1.397-3.89 1.397-0.898 0-1.696-0.3-2.394-0.898-0.698-0.599-0.997-1.396-0.997-2.294 0-1.097 0.299-1.995 0.997-2.693 0.698-0.699 1.795-1.197 3.491-1.696l2.793-0.798v-0.598c0-1.297-0.798-1.896-2.294-1.896-0.798 0-1.596 0.2-2.394 0.499-0.798 0.399-1.496 0.898-2.095 1.596v-3.092c1.397-1.097 2.993-1.696 4.988-1.696zm-2.095 9.775c0 0.499 0.199 0.898 0.499 1.098 0.299 0.299 0.698 0.399 1.097 0.399 0.798 0 1.496-0.3 2.294-0.998v-3.391c-0.998 0.299-1.696 0.598-2.194 0.897-0.499 0.3-0.898 0.599-1.197 0.898-0.3 0.299-0.499 0.698-0.499 1.097zm17.356-9.775c1.496 0 2.892 0.299 4.089 0.898v2.893c-1.197-0.699-2.394-1.098-3.491-1.098-1.197 0-2.095 0.399-2.892 1.098-0.798 0.698-1.098 1.695-1.098 2.992 0 1.197 0.399 2.194 1.098 2.893 0.698 0.698 1.695 1.097 2.992 1.097 0.898 0 2.095-0.299 3.591-0.898v2.793c-1.297 0.499-2.693 0.798-4.19 0.798-2.094 0-3.79-0.599-5.087-1.796-1.296-1.196-1.995-2.792-1.995-4.787 0-2.095 0.599-3.691 1.896-4.988 1.296-1.296 3.092-1.895 5.087-1.895zm8.678-5.685c0.498 0 0.997 0.199 1.396 0.598s0.598 0.798 0.598 1.397c0 0.498-0.199 0.997-0.598 1.396s-0.798 0.599-1.396 0.599c-0.499 0-0.998-0.2-1.397-0.599s-0.598-0.798-0.598-1.396c0-0.499 0.199-0.998 0.598-1.397 0.499-0.399 0.898-0.598 1.397-0.598zm1.795 5.984v12.967h-3.491v-12.967h3.491zm9.875-0.299c1.396 0 2.593 0.299 3.69 0.798 1.098 0.599 1.995 1.397 2.594 2.394 0.598 0.998 0.898 2.194 0.898 3.491s-0.3 2.494-0.898 3.491c-0.599 0.998-1.397 1.796-2.594 2.394-1.097 0.599-2.393 0.898-3.69 0.898-1.397 0-2.594-0.299-3.691-0.898-1.097-0.598-1.995-1.396-2.493-2.394-0.599-0.997-0.898-2.194-0.898-3.491s0.299-2.493 0.898-3.491c0.598-0.997 1.496-1.795 2.593-2.394 1.097-0.598 2.294-0.798 3.591-0.798zm-3.491 6.683c0 1.297 0.299 2.294 0.997 3.092s1.496 1.197 2.594 1.197c1.097 0 1.994-0.399 2.593-1.097 0.598-0.698 0.997-1.795 0.997-3.192 0-1.297-0.299-2.294-0.997-3.092s-1.496-1.097-2.593-1.097c-0.998 0-1.896 0.399-2.494 1.097-0.599 0.698-1.097 1.895-1.097 3.092zm20.946-6.683c1.397 0 2.494 0.499 3.292 1.397 0.798 0.897 1.197 2.094 1.197 3.591v8.278h-3.391v-7.88c0-0.797-0.2-1.496-0.599-1.994-0.399-0.499-0.997-0.699-1.596-0.699-0.499 0-0.997 0.2-1.496 0.499s-0.998 0.798-1.496 1.596v8.578h-3.392v-12.967h3.392v1.796c0.598-0.699 1.296-1.297 1.895-1.596 0.698-0.399 1.396-0.599 2.194-0.599zm12.469 0c1.695 0 2.892 0.399 3.79 1.097 0.898 0.699 1.297 1.696 1.297 2.993v6.384c0 0.498 0.199 0.698 0.598 0.698 0.2 0 0.399-0.1 0.698-0.2 0.3-0.099 0.599-0.299 0.798-0.498v1.994c-1.197 0.699-2.294 1.098-3.291 1.098-0.599 0-1.098-0.1-1.397-0.3-0.299-0.199-0.598-0.598-0.698-1.097-1.297 0.898-2.593 1.397-3.89 1.397-0.898 0-1.696-0.3-2.394-0.898-0.698-0.599-0.997-1.396-0.997-2.294 0-1.097 0.299-1.995 0.997-2.693 0.698-0.699 1.795-1.197 3.491-1.696l2.793-0.798v-0.598c0-1.297-0.798-1.896-2.294-1.896-0.798 0-1.596 0.2-2.394 0.499-0.798 0.399-1.496 0.898-2.095 1.596v-3.092c1.397-1.097 3.092-1.696 4.988-1.696zm-2.095 9.775c0 0.499 0.199 0.898 0.499 1.098 0.299 0.299 0.698 0.399 1.097 0.399 0.798 0 1.496-0.3 2.294-0.998v-3.391c-0.997 0.299-1.696 0.598-2.194 0.897-0.499 0.3-0.898 0.599-1.197 0.898-0.3 0.299-0.499 0.698-0.499 1.097zm14.663-15.959v19.45h-3.392v-19.35h3.392v-0.1zm-385.22 34.113v2.893h-8.079v4.987h8.079v2.992h-8.079v8.479h-3.691v-19.351h11.77zm13.665-0.199c1.097 0 2.195 0.099 3.192 0.399 0.998 0.299 2.194 0.698 3.391 1.296v3.491c-1.197-0.698-2.294-1.197-3.291-1.496-0.998-0.299-2.095-0.499-3.192-0.499-1.397 0-2.593 0.3-3.691 0.898-1.097 0.599-1.995 1.397-2.593 2.394-0.599 0.998-0.898 2.194-0.898 3.491s0.299 2.494 0.898 3.491c0.598 0.998 1.496 1.796 2.593 2.394 1.098 0.599 2.394 0.798 3.791 0.798 1.097 0 2.094-0.199 3.092-0.499 0.997-0.299 2.194-0.897 3.69-1.695v3.491c-1.296 0.698-2.394 1.097-3.491 1.396-1.097 0.3-2.294 0.399-3.69 0.399-2.095 0-3.89-0.399-5.486-1.197s-2.893-1.995-3.791-3.491c-0.897-1.496-1.396-3.192-1.396-4.987 0-1.995 0.499-3.691 1.396-5.287 0.898-1.596 2.294-2.793 3.89-3.59 1.596-0.798 3.492-1.197 5.586-1.197zm20.249 0c1.097 0 2.194 0.099 3.191 0.399 0.998 0.299 2.195 0.698 3.392 1.296v3.491c-1.197-0.698-2.294-1.197-3.292-1.496-0.997-0.299-2.094-0.499-3.192-0.499-1.396 0-2.593 0.3-3.69 0.898-1.097 0.599-1.995 1.397-2.594 2.394-0.598 0.998-0.897 2.194-0.897 3.491s0.299 2.494 0.897 3.491c0.599 0.998 1.497 1.796 2.594 2.394 1.097 0.599 2.394 0.798 3.79 0.798 1.097 0 2.095-0.199 3.092-0.499 0.998-0.299 2.195-0.897 3.691-1.695v3.491c-1.297 0.698-2.394 1.097-3.491 1.396-1.098 0.3-2.294 0.399-3.691 0.399-2.095 0-3.89-0.399-5.486-1.197s-2.893-1.995-3.79-3.491c-0.898-1.496-1.397-3.192-1.397-4.987 0-1.995 0.499-3.691 1.397-5.287 0.897-1.596 2.294-2.793 3.89-3.59 1.695-0.798 3.591-1.197 5.586-1.197zm13.765 0.199l11.47 13.566v-13.566h3.691v19.351h-3.192l-11.57-13.665v13.765h-3.691v-19.351h3.292v-0.1z" fill="#fff" fill-rule="evenodd"/>
</svg>
