<?xml version="1.0" encoding="UTF-8"?>
<svg width="949.43" height="252.44" style="isolation:isolate" viewBox="0 0 949.433 252.445" xmlns="http://www.w3.org/2000/svg">
<path d="m183.12 252.44c-50.33 0.06-89.56-39.17-89.63-89.64-0.07-49.77 39.28-88.64 88.87-89.62 47.98-0.95 90.92 39.37 90.65 90.1-0.27 49.59-39.89 89.11-89.89 89.16zm63.95-52.15c-0.29-0.59-0.58-1.19-0.87-1.78-3.83 1.36-7.7 2.62-11.47 4.11-10.86 4.3-22.05 6.16-33.73 5.04-18.6-1.78-34.94-9.1-49.91-19.95-2.14-1.55-4.36-3.18-6.79-4.08-4.21-1.56-6.92 0.35-7.11 4.8-0.09 2.13 0.02 4.41 0.69 6.4 2.31 6.93 4.82 13.79 7.42 20.62 3.51 9.23 10.67 13.85 20.17 14.8 4.43 0.44 9.04 0.39 13.43-0.28 22.77-3.48 43.23-12.91 62.51-25.14 2.03-1.29 3.78-3.01 5.66-4.54zm75.53-52.46h-10.28v5.37c0 21.49 0.04 42.99-0.02 64.48-0.04 13-9.72 20.27-22.12 16.75-6.22-1.76-9.88-5.9-10.98-12.25-0.28-1.63-0.41-3.31-0.41-4.97-0.03-28.33-0.05-56.65-0.02-84.98 0-2.16 0.2-4.33 0.55-6.46 1.05-6.4 5.05-10.55 11.52-11.36 4.44-0.55 8.97-0.53 13.46-0.54 22.49-0.05 44.99-0.05 67.48-0.01 12.74 0.02 17.12 3.46 20.58 15.82 7.84 28.03 15.75 56.04 23.52 84.09 3.36 12.14-3.4 21.24-16.02 21.88-8.33 0.42-13.7-3.82-16.33-13.1-5.43-19.21-10.79-38.43-16.18-57.65-1.17-4.16-2.57-8.28-3.43-12.51-0.83-4.07-2.69-5.91-7.68-4.28v4.93c0 21.49 0.04 42.99-0.02 64.48-0.04 13.22-9.96 20.56-22.52 16.81-7.2-2.15-11.05-7.94-11.08-17-0.05-21.16-0.02-42.32-0.02-63.48v-6.02zm133.93-0.26v9.88c1.98 0.09 3.76 0.23 5.54 0.24 14.5 0.02 28.99-0.1 43.49 0.06 11.45 0.12 17.91 6.4 17.9 16.94-0.01 10.06-6.32 16.64-16.45 16.73-14.83 0.14-29.66 0.04-44.49 0.04h-5.82v10.13h5.31c14.66 0 29.33-0.1 43.99 0.02 12.13 0.1 19.04 8.37 17.28 20.36-1.1 7.49-7.21 13.23-15.21 13.29-23.49 0.19-46.99 0.21-70.48-0.03-8.98-0.09-14.29-5.49-14.35-14.59-0.2-30.66-0.2-61.31 0.01-91.97 0.06-9.21 5.02-14.4 14.31-14.54 23.49-0.35 46.98-0.39 70.47-0.04 10.03 0.15 15.76 7.37 15.41 17.68-0.32 9.4-6.62 15.63-16.42 15.73-14.83 0.16-29.66 0.05-44.49 0.06-1.82 0.01-3.63 0.01-6 0.01zm132.63 41.67c8.38 3.54 16.77 7.08 25.15 10.64 9.43 4.01 12.23 10.91 8.12 20.01-4.29 9.52-13.04 13.43-21.59 8.78-7.57-4.12-14.58-9.27-21.84-13.97-5.14-3.33-10.27-6.66-16.4-10.64 0 4 0.05 7.08-0.01 10.15-0.22 10.54-5.92 16.39-15.9 16.36-9.93-0.03-15.95-5.99-16.02-16.38-0.14-20.14-0.05-40.29-0.05-60.44 0-7.99-0.08-15.98 0.03-23.97 0.16-10.61 3.98-15.45 14.44-15.71 16.96-0.41 33.98-0.46 50.9 0.59 14.42 0.89 24.13 10.11 26.2 24.5 1.21 8.41 1.1 17.33-0.31 25.71-2.22 13.24-11.73 20.99-25.13 22.61-2.46 0.3-4.93 0.56-7.39 0.85-0.07 0.29-0.14 0.6-0.2 0.91zm-24.78-33.65c9.1 0 17.74 0.21 26.35-0.19 1.65-0.08 4.27-2.43 4.46-3.98 0.18-1.51-2.11-4.72-3.43-4.79-9.06-0.43-18.16-0.22-27.38-0.22v9.18zm295.71 79.94c-7.4 0.06-12.59-3.5-14.83-10.35-1.72-5.26-4.71-6.55-9.91-6.32-9.64 0.42-19.33 0.42-28.97 0-4.87-0.21-7.29 1.26-9.27 5.84-4.68 10.83-14.17 13.88-24.14 8.48-8.19-4.44-10.87-11.99-6.9-20.76 7.89-17.42 15.92-34.78 24.07-52.09 5.53-11.74 11.4-23.31 17.02-35.01 2.42-5.05 5.97-8.77 11.31-10.63 9.1-3.16 16.89 0.15 20.83 9.25 5.35 12.36 10.41 24.85 15.59 37.29 7.03 16.89 14.11 33.77 21.08 50.68 5.1 12.36-2.55 23.66-15.88 23.62zm-30.33-47.21c-2.46-5.85-4.71-11.2-7.41-17.62-3.19 6.5-5.81 11.84-8.64 17.62h16.05zm-139.38-74.17c3.83 0 7.69-0.33 11.48 0.07 8.43 0.89 14.07 7.59 14.31 16.48 0.22 8.46-5.07 15.64-13.26 16.82-5.56 0.8-11.29 0.68-16.93 0.56-15.2-0.33-26.25 9.86-27.1 25.24-0.82 14.73 9.91 27.12 24.55 28.09 5.15 0.34 10.33 0.09 15.49 0.21 10.41 0.24 17.35 7.25 17.25 17.35-0.09 9.83-6.93 16.48-17.49 16.33-8.63-0.12-17.47 0.17-25.85-1.54-29.31-5.98-50.49-34.26-48.07-63.1 2.62-31.31 26.11-54.48 57.15-56.39 2.83-0.17 5.65-0.32 8.48-0.47-0.01 0.11-0.01 0.23-0.01 0.35zm-624.89 121.55c-33.05 1.69-55.4-21.1-62.16-41.11-13.07-38.66 13.75-77.77 55.09-80.05 5.81-0.32 11.66-0.31 17.48-0.11 9.34 0.33 15.6 7.43 15.54 17.27-0.06 9.42-6.45 16.3-15.67 16.65-4.99 0.19-9.99 0.07-14.99 0.04-13.9-0.09-25.13 9.87-26.4 23.43-1.38 14.76 7.55 27.39 21.62 29.51 6.86 1.04 13.95 0.54 20.91 1 7.65 0.5 13.56 6.46 14.41 14.16 0.98 8.86-2.95 15.88-10.45 18.27-2.02 0.64-4.24 0.8-6.38 0.91-2.99 0.14-6 0.03-9 0.03zm850.3-34.11c6.12 0 11.59-0.06 17.06 0.01 10.62 0.13 16.61 6.27 16.58 16.93-0.03 10.77-5.9 16.77-16.6 16.83-11.15 0.06-22.31 0.06-33.46-0.01-11.44-0.07-16.85-5.34-16.89-16.88-0.11-29.13-0.11-58.26 0.01-87.39 0.04-10.59 6.56-16.92 16.8-16.87 10 0.05 16.36 6.26 16.44 16.69 0.16 21.31 0.06 42.61 0.06 63.92v6.77zm-282.01-131.01c5.49 2.32 10.99 4.62 16.46 6.97 6.79 2.92 8.71 7.59 5.78 13.94-3.08 6.69-9.53 9.11-15.7 5.4-6.7-4.02-13.09-8.55-19.63-12.83-1.48-0.97-3.03-1.85-5.4-3.3 0 3.06 0.1 5.3-0.02 7.54-0.33 6.4-4.19 10.15-10.49 10.27-6.61 0.14-10.98-3.52-11.27-10.01-0.29-6.65-0.13-13.32-0.09-19.98 0.06-12.32 0.12-24.64 0.29-36.96 0.13-10.09 2.48-12.41 12.36-12.45 9.16-0.03 18.32-0.13 27.47 0.02 14.45 0.24 21.8 6.98 23.03 21.39 0.36 4.25 0.15 8.71-0.72 12.88-2.2 10.54-8.22 14.79-22.07 17.12zm-18.16-23.07c6.48 0 12.44 0.18 18.38-0.15 1.27-0.07 2.43-2 3.65-3.07-0.9-1.01-1.77-2.84-2.72-2.88-6.39-0.26-12.79-0.13-19.31-0.13v6.23zm265.47 51.08c-22.66-0.09-40.16-17.62-40.16-40.23 0-22.82 17.65-40.49 40.5-40.53 22.46-0.04 40.39 18.18 40.22 40.86-0.17 22.51-17.94 39.99-40.56 39.9zm-17.92-39.74c0.08 10.2 7.87 17.91 18.11 17.95 10.44 0.04 18.39-7.88 18.35-18.25-0.04-10.33-8.11-18.33-18.41-18.27s-18.13 8.13-18.05 18.57zm-123.6 0.06c0-8.99-0.05-17.99 0.02-26.98 0.06-8.08 4.64-12.79 12.7-12.72 8.64 0.07 17.47-0.52 25.89 0.99 21.53 3.88 34.08 21.29 32.12 43-1.7 18.74-18.94 34.34-38.85 34.98-6.66 0.22-13.33 0.15-19.99 0.01-7.66-0.16-11.74-4.16-11.87-11.8-0.16-9.16-0.04-18.32-0.04-27.48h0.02zm22.1-17.32v34.39c9.11 0.87 17.72 0.87 23.54-7.41 4.2-5.98 4.48-12.68 0.83-18.89-5.48-9.35-14.71-8.93-24.37-8.09zm-35.2 133.28c0-14.67-0.09-29.33 0.03-43.99 0.06-7.75 3.76-13.42 10.3-15.56 6.92-2.27 13.9-2.02 18.77 3.98 2.44 3 4.3 7.44 4.35 11.25 0.35 29.33 0.31 58.66 0.14 87.99-0.06 10.31-6.73 16.7-16.59 16.72-10.21 0.02-16.85-6.43-16.96-16.89-0.15-14.5-0.04-29-0.04-43.5zm-25.71-155.92c4.27-0.04 7.54 1.75 9.19 5.68 8.39 19.94 16.78 39.87 24.92 59.91 2.09 5.13-0.73 10.43-5.91 12.7-5.68 2.49-11.86 0.95-14-4.53-1.83-4.69-4.51-5.68-9.02-5.38-5.47 0.37-11 0.31-16.48 0.01-3.5-0.19-5.23 0.97-6.7 4.22-3.29 7.29-10.51 8.93-16.95 4.3-3.96-2.85-5.54-7.21-3.35-11.92 9.19-19.76 18.41-39.52 28.2-58.98 1.59-3.15 6.1-4.84 9.26-7.2 0.28 0.4 0.56 0.8 0.84 1.19zm-1.36 37.04c-2.23 4.55-3.79 7.74-5.6 11.44h10.21c-1.49-3.68-2.79-6.92-4.61-11.44zm136.93 2.65c0 9.31 0.06 18.62-0.02 27.93-0.06 7.17-4.28 11.57-10.86 11.56-6.44-0.01-10.86-4.19-10.92-11.05-0.16-18.95-0.15-37.9-0.02-56.85 0.05-7.06 4.57-11.13 11.43-10.93 6.47 0.18 10.32 4.34 10.37 11.42 0.07 9.3 0.02 18.61 0.02 27.92zm-150.91-41.95c-1.23-1.27-3.71-2.66-3.92-4.34-0.24-1.94 1.05-5.5 2.48-5.99 7.69-2.6 15.58-4.73 23.54-6.34 1.51-0.3 4.53 2.16 5.2 3.95 0.53 1.45-1 5.12-2.37 5.58-7.86 2.67-15.94 4.65-24.93 7.14z" fill="#fff" fill-rule="evenodd"/>
</svg>
