<?xml version="1.0" encoding="UTF-8"?>
<svg width="212.6" height="29.136" style="isolation:isolate" viewBox="0 0 212.599 29.136" xmlns="http://www.w3.org/2000/svg">
<path d="m180.44 19.962c0.376 0 0.692 0.128 0.944 0.381 0.252 0.254 0.378 0.57 0.378 0.952 0 0.381-0.126 0.699-0.378 0.951-0.252 0.256-0.568 0.383-0.944 0.383-0.377 0-0.693-0.127-0.944-0.383-0.254-0.252-0.378-0.57-0.378-0.951 0-0.382 0.124-0.698 0.378-0.952 0.251-0.253 0.567-0.381 0.944-0.381zm-119.23-7.212h5.373l-2.702-6.942-2.671 6.942zm5.624 0.56h-5.84l-2.959 7.688c-0.206 0.552-0.309 0.893-0.309 1.022 0 0.302 0.22 0.456 0.661 0.456v0.205h-2.956v-0.205c0.396 0 0.728-0.099 0.998-0.298 0.27-0.198 0.567-0.71 0.891-1.541l7.164-18.615h0.359l7.074 17.977c0 0.091 0.18 0.529 0.541 1.307 0.362 0.779 0.912 1.17 1.652 1.17v0.205h-4.619v-0.205c0.421 0 0.632-0.171 0.632-0.511 0-0.232-0.104-0.599-0.31-1.107-0.036-0.036-0.067-0.096-0.094-0.178-0.018-0.093-0.031-0.138-0.04-0.138l-2.845-7.232zm12.383-10.403v9.52h2.071c1.632 0 2.844-0.395 3.632-1.186 0.788-0.789 1.183-1.827 1.183-3.113 0-1.249-0.388-2.431-1.163-3.547-0.776-1.115-2.142-1.674-4.096-1.674h-1.627zm-3.701-0.354v-0.206h5.616c1.424 0 2.453 0.033 3.09 0.097 0.634 0.063 1.287 0.279 1.955 0.642 0.666 0.365 1.17 0.857 1.511 1.478 0.339 0.622 0.51 1.385 0.51 2.287 0 1.033-0.303 2.015-0.91 2.95-0.604 0.935-1.461 1.726-2.564 2.37l1.399 2.209c0.303 0.553 1.112 1.764 2.426 3.632 1.313 1.87 2.328 3.005 3.042 3.413 0.715 0.406 1.408 0.608 2.08 0.608 0.662 0 1.422-0.255 2.28-0.766l0.081 0.275c-1.073 0.897-2.468 1.345-4.182 1.345-1.145 0-2.129-0.347-2.951-1.044-0.82-0.696-2.255-2.61-4.3-5.741-0.019-0.018-0.027-0.038-0.027-0.056l-1.992-3.149-1.763 0.056h-1.6v7.772c0 0.625 0.079 1.073 0.241 1.344 0.159 0.271 0.549 0.407 1.165 0.407v0.205h-5.107v-0.205c0.626-0.029 1.018-0.167 1.173-0.415 0.156-0.247 0.231-0.755 0.231-1.518v-16.154c0-0.525-0.065-0.959-0.198-1.304-0.132-0.345-0.535-0.522-1.206-0.532zm29.037 19.393c1.36 0 2.702-0.377 4.028-1.128 1.325-0.751 2.368-1.786 3.127-3.104 0.762-1.319 1.143-2.673 1.143-4.065 0-2.019-0.531-3.846-1.592-5.483s-2.405-2.892-4.035-3.769c-1.628-0.875-3.105-1.313-4.43-1.313-1.96 0-3.74 0.761-5.338 2.282-1.596 1.521-2.396 3.411-2.396 5.669 0 2.867 0.975 5.401 2.92 7.606 1.947 2.202 4.138 3.305 6.573 3.305zm1.344 0.717c8e-3 0.026 0.145 0.128 0.403 0.304l2.085 1.519c1.139 0.828 2.195 1.502 3.168 2.02 0.974 0.516 1.944 0.917 2.913 1.203 0.969 0.282 1.933 0.425 2.893 0.425 0.368 0 0.884-0.047 1.548-0.138l0.026 0.167c-0.565 0.278-1.238 0.51-2.017 0.695-0.782 0.185-1.369 0.278-1.763 0.278-1.435 0-3.314-0.543-5.638-1.627-2.323-1.086-4.51-2.576-6.563-4.474-2.968 0-5.278-0.963-6.932-2.89-1.653-1.927-2.48-4.097-2.48-6.507 0-1.84 0.427-3.657 1.283-5.455 0.856-1.797 2.122-3.279 3.802-4.443 1.679-1.166 3.68-1.746 6-1.746 2.786 0 5.059 0.875 6.819 2.626 1.761 1.751 2.64 3.931 2.64 6.537s-0.694 5.006-2.088 7.201c-1.391 2.195-3.423 3.63-6.099 4.305zm27.707 0.018h-3.758v-3.123c-1.909 2.181-4.187 3.272-6.831 3.272-1.961 0-3.518-0.568-4.669-1.701-1.153-1.131-1.727-2.696-1.727-4.695v-12.182c0-0.736-0.086-1.204-0.259-1.402-0.172-0.197-0.573-0.297-1.205-0.297v-0.206h5.278v0.206c-0.555 0-0.949 0.09-1.176 0.27-0.228 0.178-0.345 0.604-0.345 1.274v11.149c0 2.335 0.535 4 1.599 4.998 1.065 0.997 2.279 1.495 3.64 1.495 2.139 0 4.037-0.972 5.695-2.918v-13.779c0-1.208-0.104-1.925-0.309-2.149-0.206-0.227-0.528-0.34-0.968-0.34h-0.186v-0.206h5.221v0.206c-0.644 0.037-1.049 0.148-1.214 0.331-0.167 0.185-0.25 0.534-0.25 1.049v16.556c0 0.653 0.032 1.08 0.095 1.283s0.19 0.37 0.383 0.503 0.522 0.2 0.986 0.2v0.206zm7.532-20.334v0.206c-0.261-0.028-0.55 0.015-0.868 0.125-0.319 0.11-0.507 0.271-0.567 0.482-0.057 0.211-0.086 0.713-0.086 1.505v15.604c0 0.845 0.033 1.363 0.101 1.552 0.068 0.188 0.198 0.344 0.39 0.467 0.192 0.125 0.537 0.188 1.03 0.188v0.205h-5.308v-0.205c0.667 0 1.084-0.133 1.247-0.394s0.244-0.856 0.244-1.786v-15.452c0-0.967-0.09-1.598-0.27-1.898-0.181-0.299-0.589-0.429-1.221-0.393v-0.206h5.308zm10.8 20.688h-0.255l-7.059-17.94c-0.501-1.262-0.912-2-1.234-2.217-0.322-0.216-0.653-0.325-0.994-0.325v-0.206h4.565v0.206c-0.402-0.027-0.602 0.133-0.602 0.482 0 0.14 0.027 0.286 0.08 0.443l6.162 15.658 6.082-15.645c0.079-0.211 0.122-0.381 0.122-0.51 0-0.312-0.239-0.455-0.711-0.428v-0.206h2.982v0.206c-0.207 0-0.424 0.03-0.655 0.09-0.23 0.06-0.466 0.297-0.71 0.711-0.241 0.414-0.366 0.636-0.376 0.664l-7.397 19.017zm17.995-1.089c1.36 0 2.703-0.377 4.026-1.129 1.327-0.753 2.371-1.789 3.129-3.11 0.762-1.32 1.142-2.677 1.142-4.071 0-1.976-0.512-3.771-1.537-5.387-1.024-1.615-2.353-2.88-3.987-3.793-1.634-0.915-3.145-1.372-4.532-1.372-1.961 0-3.74 0.761-5.337 2.283-1.597 1.525-2.397 3.417-2.397 5.68 0 2.889 0.977 5.429 2.928 7.616 1.949 2.189 4.14 3.283 6.565 3.283zm0.072-19.952c2.777 0 5.048 0.87 6.812 2.612 1.766 1.743 2.648 3.916 2.648 6.523 0 3.354-1.022 6.177-3.065 8.469-2.042 2.292-4.752 3.437-8.129 3.437-2.741 0-4.984-0.924-6.731-2.773-1.748-1.847-2.62-4.065-2.62-6.652 0-1.746 0.421-3.539 1.262-5.379 0.842-1.839 2.109-3.338 3.802-4.498 1.694-1.16 3.701-1.739 6.021-1.739zm13.668 0.575v-0.221h5.65c2.008 0 3.467 0.23 4.378 0.692 0.909 0.462 1.574 1.037 1.991 1.726 0.417 0.687 0.625 1.594 0.625 2.721 0 1.725-0.579 3.024-1.741 3.891-1.157 0.87-2.73 1.284-4.715 1.248v-0.222c1.259 0 2.284-0.395 3.069-1.184 0.788-0.79 1.183-1.827 1.183-3.113 0-1-0.193-1.889-0.571-2.665-0.38-0.776-0.912-1.366-1.601-1.77-0.687-0.404-1.738-0.607-3.147-0.607h-1.408v17.358c0 0.982 0.105 1.567 0.315 1.755 0.208 0.188 0.606 0.282 1.191 0.282v0.221h-5.219v-0.221c0.933 0 1.4-0.435 1.4-1.308v-16.806c0-0.716-0.09-1.191-0.268-1.426-0.181-0.234-0.557-0.351-1.132-0.351zm28.921-0.221l-0.884 2.354h-0.209c0.033-0.144 0.052-0.339 0.052-0.583 0-0.209-0.073-0.34-0.217-0.4-0.143-0.057-0.373-0.087-0.687-0.087h-5.035v16.833c0 0.693 0.05 1.167 0.156 1.422 0.104 0.255 0.245 0.414 0.426 0.481 0.181 0.066 0.472 0.1 0.877 0.1v0.213h-5.16v-0.213c0.647-0.045 1.05-0.175 1.215-0.388 0.161-0.214 0.244-0.657 0.244-1.336v-17.112h-4.775c-0.483 0-0.797 0.03-0.944 0.087-0.146 0.06-0.219 0.207-0.219 0.441 0 0.119 0.033 0.298 0.104 0.542h-0.208l-0.939-2.354h0.208c0.156 0.302 0.312 0.484 0.464 0.547 0.151 0.064 0.481 0.094 0.984 0.094h12.761c0.503 0 0.867-0.03 1.088-0.094 0.221-0.063 0.385-0.245 0.49-0.547h0.208z" fill="#fff" fill-rule="evenodd"/>
<path d="m45.363 10.811c0.163 0.117 0.325 0.233 0.488 0.35 0.612 0.36 1.025 1.057 0.983 1.807-6e-3 0.107-0.021 0.215-0.047 0.324-0.194 0.824-0.901 1.443-1.759 1.443h-21.999-21.138c-0.221 0-0.429-0.045-0.625-0.114-0.68-0.242-1.167-0.859-1.246-1.596-7e-3 -0.068-0.02-0.134-0.02-0.204v-0.013c0-0.026 5e-3 -0.051 7e-3 -0.078 0.032-0.606 0.377-1.118 0.812-1.437 0.084-0.061 0.171-0.119 0.261-0.165 0.054-0.041 0.11-0.081 0.166-0.121 0.089-0.065 0.178-0.13 0.266-0.194 0.125 0.012 0.251 0.023 0.376 0.023h21.138 11.002 11.002 0.01c0.108-2e-3 0.216-0.012 0.323-0.025zm0 4.338c0.163 0.117 0.325 0.233 0.488 0.35 0.612 0.36 1.025 1.057 0.983 1.807-6e-3 0.107-0.021 0.214-0.047 0.323-0.194 0.825-0.901 1.443-1.759 1.443h-21.999-21.138c-0.221 0-0.429-0.044-0.625-0.113-0.68-0.242-1.167-0.859-1.246-1.596-7e-3 -0.068-0.02-0.135-0.02-0.203v-0.015c0-0.026 5e-3 -0.05 7e-3 -0.077 0.032-0.606 0.377-1.119 0.812-1.436 0.084-0.062 0.171-0.12 0.261-0.166 0.054-0.041 0.11-0.082 0.166-0.121 0.089-0.065 0.178-0.13 0.266-0.194 0.125 0.012 0.251 0.022 0.376 0.022h21.138 11.002 11.002 0.01c0.108-1e-3 0.216-0.011 0.323-0.024zm0 4.367c0.163 0.117 0.325 0.233 0.488 0.35 0.612 0.36 1.025 1.057 0.983 1.807-6e-3 0.107-0.021 0.215-0.047 0.324-0.194 0.824-0.901 1.443-1.759 1.443h-21.999-21.138c-0.221 0-0.429-0.045-0.625-0.114-0.68-0.242-1.167-0.859-1.246-1.596-7e-3 -0.068-0.02-0.134-0.02-0.203v-0.014c0-0.026 5e-3 -0.051 7e-3 -0.078 0.032-0.606 0.377-1.118 0.812-1.436 0.084-0.062 0.171-0.12 0.261-0.166 0.054-0.041 0.11-0.081 0.166-0.121 0.089-0.065 0.178-0.13 0.266-0.194 0.125 0.012 0.251 0.023 0.376 0.023h21.138 11.002 11.002 0.01c0.108-2e-3 0.216-0.012 0.323-0.025zm-44.097-9.233c0.196 0.07 0.404 0.115 0.625 0.115 7.052-1e-3 14.097-1e-3 21.138-1e-3 7.334 0 14.664 1e-3 21.999 1e-3 0.858 0 1.565-0.619 1.759-1.443 0.026-0.109 0.041-0.217 0.047-0.324 0.042-0.75-0.371-1.448-0.983-1.808-0.208-0.149-0.415-0.297-0.623-0.447-0.246-0.177-0.493-0.353-0.74-0.529-0.1-0.072-0.202-0.144-0.302-0.216-2.325-1.666-4.65-3.331-6.975-4.997-0.065-0.046-0.129-0.093-0.193-0.138-0.112-0.142-0.414-0.267-0.802-0.357-0.069-0.016-0.135-0.033-0.21-0.047-0.322-0.058-0.688-0.092-1.055-0.092h-11.748-11.321c-0.351 0-0.687 0.038-0.999 0.091-0.105 0.018-0.219 0.031-0.314 0.054-0.195 0.047-0.364 0.103-0.498 0.166-0.124 0.057-0.218 0.12-0.27 0.186-0.022 0.016-0.045 0.032-0.067 0.048l-0.124 0.09c-1.36 0.979-2.718 1.96-4.078 2.94-0.724 0.522-1.449 1.045-2.174 1.568-0.147 0.108-0.297 0.214-0.446 0.321-0.405 0.29-0.814 0.578-1.212 0.874-0.15 0.11-0.302 0.221-0.454 0.331-0.056 0.041-0.112 0.081-0.166 0.122-0.09 0.046-0.177 0.104-0.261 0.165-0.435 0.319-0.78 0.831-0.812 1.437-2e-3 0.026-7e-3 0.051-7e-3 0.077v0.014c0 0.069 0.013 0.136 0.02 0.204 0.079 0.737 0.566 1.354 1.246 1.595z" fill="#fff" fill-rule="evenodd"/>
</svg>
