<?xml version="1.0" encoding="UTF-8"?>
<svg style="isolation:isolate" viewBox="0 0 737.3 530.2" xmlns="http://www.w3.org/2000/svg">
<path d="m67.7 105.4v-53.7c0-2.2-1.8-4-4-4s-4 1.8-4 4v371.1c0 2 1.5 3.7 3.5 3.9v31.8c0 2.2 1.8 4 4 4s4-1.8 4-4v-349.1c-0.1-2.1-1.6-3.7-3.5-4zm62.7 24.9c-0.2 0-0.4 0-0.6 0.1v-52.9c0-2.2-1.8-4-4-4s-4 1.8-4 4v323.8c0 2.2 1.8 4 4 4 0.2 0 0.4 0 0.6-0.1v35.5c0 2.2 1.8 4 4 4s4-1.8 4-4v-306.5c0-2.1-1.8-3.9-4-3.9zm-126.4-53c-2.2 0-4 1.8-4 4v395.9c0 2.2 1.8 4 4 4s4-1.8 4-4v-395.9c0-2.3-1.8-4-4-4zm94.5-41.8c-2.2 0-4 1.8-4 4v102.1c-2 0.3-3.5 1.9-3.5 3.9v304.3c0 1 0.4 1.9 1 2.6v40.9c0 1.7 1.3 3 3 3s3-1.3 3-3v-40.9c0.6-0.7 1-1.6 1-2.6v-80.1c2-0.3 3.5-1.9 3.5-3.9v-326.3c0-2.2-1.8-4-4-4zm-62.3-27.9c-2.2 0-4 1.8-4 4v101.6h-0.4c-2.2 0-4 1.8-4 4v305.2c0 1.5 0.8 2.7 1.9 3.4v86.3c0 1.4 1.1 2.5 2.5 2.5s2.5-1.1 2.5-2.5v-87c0.7-0.7 1.1-1.7 1.1-2.7v-30.9h0.4c2.2 0 4-1.8 4-4v-375.9c0-2.2-1.8-4-4-4zm222.8 85.6c-0.2 0-0.4 0-0.6 0.1v-33.8c0-2.2-1.8-4-4-4s-4 1.8-4 4v373.2c0 2.2 1.8 4 4 4 0.3 0 0.5 0 0.8-0.1v53c0 1.7 1.3 3 3 3s3-1.3 3-3v-86.6c1.1-0.7 1.9-2 1.9-3.4v-302.4c-0.1-2.2-1.9-4-4.1-4zm-32.5-74.6c-2.2 0-4 1.8-4 4v126.9c-1.3 0.4-2.2 1.5-2.2 2.9v350.6c0 1.7 1.3 3 3 3s3-1.3 3-3v-102.8h0.2c2.2 0 4-1.8 4-4v-373.5c0-2.3-1.8-4.1-4-4.1zm62.7-18.6c-2.2 0-4 1.8-4 4v125.9c-1.7 0.5-2.9 2-2.9 3.8v304.7c0 1 0.4 1.9 1 2.6v86.2c0 1.7 1.3 3 3 3s3-1.3 3-3v-86.2c0.6-0.7 1-1.6 1-2.6v-12.4c1.7-0.5 2.9-2 2.9-3.8v-418.2c0-2.2-1.8-4-4-4zm31.8 41.7c0-2.2-1.8-4-4-4s-4 1.8-4 4v304.4c0 1 0.4 1.9 1 2.6v109.4c0 1.7 1.3 3 3 3s3-1.3 3-3v-109.4c0.6-0.7 1-1.6 1-2.6v-304.4zm-121.3 74c0-2-1.5-3.7-3.5-3.9v-32.3c0-2.2-1.8-4-4-4s-4 1.8-4 4v325.3c0 2 1.5 3.7 3.5 3.9v9.4c0 1 0.4 1.9 1 2.6v41.5c0 1.7 1.3 3 3 3s3-1.3 3-3v-41.5c0.6-0.7 1-1.6 1-2.6v-302.4zm-35.2-79.4c-2.2 0-4 1.8-4 4v128.6c-0.7-0.6-1.6-0.9-2.5-0.9-2.2 0-4 1.8-4 4v304.7c0 2.2 1.8 4 4 4s4-1.8 4-4v-106.6c0.7 0.6 1.6 0.9 2.5 0.9 2.2 0 4-1.8 4-4v-326.7c0-2.2-1.8-4-4-4zm499.6 239.2c2.3 0 4.2-1.6 4.2-4.1s-1.9-4.2-4.2-4.2c-2.4 0-4.4 1.7-4.4 4.2-0.1 2.4 1.9 4.1 4.4 4.1zm-3.3 7.6h6.4v34.2h-6.4v-34.2zm34.6 102.8c-5.1 0-8.3-3.5-8.3-12 0-7.9 3.2-12.3 8.3-12.3 3.1 0 5.1 0.6 7.9 2.1l1.7-5.2c-2.1-1.5-5.4-2.5-9.9-2.5-8.3 0-14.6 6.3-14.6 17.9 0 11.4 5.1 17.7 14.3 17.7 4.8 0 7.8-1.2 11.3-3.6l-2.4-4.6c-2.3 1.7-4.6 2.5-8.3 2.5zm-64.1-162.1c-8.6 0-13.4 4-13.4 10.7 0 5.8 4.2 9.9 10.1 9.9 3.9 0 7.3-1.1 9.6-3.6v2.9h4.4v-23.5c0-7.7-4.4-11.1-11.4-11.1-4.2 0-7.6 1.3-10.5 3.2l1.7 3.5c2.3-1.6 5.2-2.6 8.2-2.6 5.5 0 7.6 2.2 7.6 7.3v4c-1.7-0.4-3.9-0.7-6.3-0.7zm6.3 13.4c-1.7 1.4-4.8 3.2-8.1 3.2-5 0-7.1-1.9-7.1-6.1 0-4.1 2.8-6.5 8.6-6.5 2.4 0 4.6 0.2 6.6 0.6v8.8zm27.2 119.4h6.4v34.2h-6.4v-34.2zm60-0.7c-4.3 0-8 1.3-11.1 3.2l2 4.6c2.3-1.5 5.1-2.4 7.9-2.4 5.4 0 7.3 2.1 7.3 6.8v3.1c-1.7-0.4-3.8-0.6-6.1-0.6-8.8 0-13.4 4-13.4 10.8 0 6.1 4.4 10.1 10 10.1 3.9 0 7.3-1.1 9.6-3.6v2.9h6.3v-23.2c-0.1-7.9-4.6-11.7-12.5-11.7zm6.1 27.4c-1.6 1.4-4.3 2.9-7.1 2.9-4.3 0-6.2-1.7-6.2-5.3 0-3.4 2.4-5.6 7.5-5.6 2 0 3.9 0.2 5.8 0.6v7.4zm-136.7-138.9c3.2 0 7.1-1.9 9.1-4.1v3.4h4.6v-49.9l-4.6 2.6v16c-2.2-2.1-5.1-3.2-8.8-3.2-8.8 0-13.8 6.2-13.8 18.3 0 11.4 4.2 16.9 13.5 16.9zm0.9-31.1c2.9 0 5.8 1.2 8.2 3.1v20c-2.2 2-5.1 3.9-8.5 3.9-6.2 0-9.6-3.7-9.6-13 0.1-10.6 3.5-14 9.9-14zm-27.1 60.2l8.4 6 2.5-4-10.9-8.5-11.1 8.5 2.6 4 8.5-6zm-95.6-33.1c-3.6 0-6.1-0.6-9.5-2.1l-1.4 4.1c3.6 1.6 6.7 2.1 10.9 2.1 7.6 0 12.1-3.4 12.1-10.6 0-4.1-2.4-7-7.8-9l-3.1-1.1c-5.3-1.9-6.6-3.6-6.6-5.9 0-2.8 2.1-4.6 7.1-4.6 2.9 0 5.5 0.6 7.9 1.8l1.6-4c-3.1-1.3-5.6-1.9-9.4-1.9-7.2 0-11.7 3.3-11.7 9.3 0 3.8 2.2 6.6 7.8 8.7l3.1 1.1c5.3 2 6.3 3.6 6.3 6.4 0.1 3.4-2.7 5.7-7.3 5.7zm68.9 4c4.1 0 7.6-1.6 10.1-4v3.3h4.6v-33.9h-4.6v26.4c-2.1 2.2-5.4 4.1-8.7 4.1-5.6 0-8.4-2.6-8.4-7.6v-22.9h-4.5v23.2c0 6.6 3.2 11.4 11.5 11.4zm39.1 108.9l12.9-7.6-3.4-5.2-12.3 8.4 2.8 4.4zm115.4-39v2.9h6.3v-23.2c0-7.8-4.5-11.6-12.4-11.6-4.3 0-8 1.3-11.1 3.2l2 4.6c2.3-1.5 5.1-2.4 7.9-2.4 5.4 0 7.3 2.1 7.3 6.8v3.1c-1.7-0.4-3.8-0.6-6.1-0.6-8.8 0-13.4 4-13.4 10.8 0 6.1 4.4 10.1 10 10.1 3.9 0 7.2-1.1 9.5-3.7zm-13.3-7c0-3.4 2.4-5.6 7.5-5.6 2 0 3.9 0.2 5.8 0.6v7.5c-1.6 1.4-4.3 2.9-7.1 2.9-4.3-0.1-6.2-1.8-6.2-5.4zm-14.4 33.4c-2.4 0-4.4 1.7-4.4 4.2s2 4.1 4.4 4.1c2.3 0 4.2-1.6 4.2-4.1s-2-4.2-4.2-4.2zm-231.7-96.3c4.1 0 7.6-1.6 10.1-4v3.3h4.6v-33.9h-4.6v26.4c-2.1 2.2-5.4 4.1-8.7 4.1-5.6 0-8.4-2.6-8.4-7.6v-22.9h-4.5v23.2c0 6.6 3.3 11.4 11.5 11.4zm-22.7 38.7h-6.4v34.2h6.4v-23.5c1.9-3.4 4.2-5.1 6.4-5.1 2.1 0 3.3 0.2 4.5 0.9l1.7-6c-1.1-0.6-2.8-1.1-5.1-1.1-2.9 0-5.6 1.6-7.6 5.3v-4.7h0.1zm210.6 72.8c-3.2 0-6.9 1.6-8.9 3.8v-19l-6.4 3.1v46.9h6.4v-2.5c2.1 2.1 5 3.2 8.6 3.2 8.6 0 13.8-6.3 13.8-18.5 0-11.5-4.2-17-13.5-17zm-1.7 30c-2.6 0-5.2-1-7.2-2.6v-18.3c2-1.7 4.6-3.4 7.5-3.4 5.4 0 8.5 3.4 8.5 11.6-0.1 9.7-3.2 12.7-8.8 12.7zm-44.1-76.2c-2.6 1.9-5.6 2.8-9.4 2.8-5.2 0-8.8-3.2-9.1-11.1h21.5c0.1-12.3-3.6-19-13.4-19-8.7 0-14.6 5.8-14.6 17.6 0 12.1 5.8 18 15.1 18 5 0 8.8-1.3 12.3-3.6l-2.4-4.7zm-10.6-22.3c4.5 0 6.9 3.5 7.3 9.2h-15.2c0.3-6 3.3-9.2 7.9-9.2zm-86.4 10.3l-3.1-1.1c-4.8-1.7-5.9-3.1-5.9-5.1 0-2.3 1.7-3.8 6.3-3.8 3 0 5.7 0.6 8.2 1.8l1.8-5.2c-3.4-1.4-5.9-1.9-10-1.9-7.6 0-12.3 3.6-12.3 9.7 0 4.3 2.4 7.4 8.1 9.3l3.1 1.1c5 1.8 5.9 3.1 5.9 5.4 0 2.9-2.4 4.7-6.9 4.7-3.6 0-6.2-0.5-9.6-1.9l-1.6 5.3c3.7 1.6 7 2.1 11.5 2.1 8.1 0 12.8-3.8 12.8-10.9-0.2-4.6-2.8-7.6-8.3-9.5zm109.7 84.6c-1.8 1.9-4.6 3.6-7.6 3.6-5 0-7.5-2.2-7.5-6.7v-22.5h-6.3v23.3c0 6.8 3.4 11.5 11.5 11.5 4.1 0 7.5-1.4 9.9-3.9v3.2h6.5v-34.2h-6.5v25.7zm-83.8-137.9c4.9 0 8.5-1.1 11.9-3.5l-1.9-3.5c-2.6 1.9-5.6 2.9-9.7 2.9-5.6 0-9.3-3.6-9.7-12.9h22c0-11.6-3.4-18.3-13-18.3-8.1 0-13.8 5.4-13.8 17.3 0 12 5.5 18 14.2 18zm-0.4-31.3c5.2 0 7.9 4.1 8.3 10.5h-17.3c0.4-6.8 3.7-10.5 9-10.5zm-21.2 145c0-8-5.8-12.9-15.2-12.9h-12.5v45.6h6.6v-18h6.9l9.9 18h8l-11.4-19.8c5-2.3 7.7-6.7 7.7-12.9zm-16.2 9.2h-4.8v-16.5h5.5c5.8 0 8.7 2.9 8.7 8.2-0.1 6.2-3.8 8.3-9.4 8.3zm39.7-11.4c-8.7 0-14.6 5.8-14.6 17.6 0 12.1 5.8 18 15.1 18 5 0 8.8-1.3 12.3-3.6l-2.4-4.6c-2.6 1.9-5.6 2.8-9.4 2.8-5.2 0-8.8-3.2-9.1-11.1h21.5c0.1-12.4-3.6-19.1-13.4-19.1zm-8.1 14.3c0.4-6.1 3.3-9.2 7.9-9.2 4.5 0 6.9 3.5 7.3 9.2h-15.2zm1.7-103.1c-2.4 0-4.4 1.7-4.4 4.2s2 4.1 4.4 4.1c2.3 0 4.2-1.6 4.2-4.1s-1.9-4.2-4.2-4.2zm44.5 88.8c-3.1 0-6.9 1.8-8.9 4v-3.3h-6.4v48.8l6.4-3.1v-14c2.1 2.1 5 3.2 8.6 3.2 8.6 0 13.8-6.3 13.8-18.5 0-11.6-4.2-17.1-13.5-17.1zm-1.7 30c-2.6 0-5.2-1-7.2-2.6v-18.3c2-1.7 4.6-3.4 7.5-3.4 5.4 0 8.5 3.4 8.5 11.6 0 9.7-3.1 12.7-8.8 12.7zm-46-102.8h6.4v34.2h-6.4v-34.2zm112.7 11.7v22.5h6.4v-23.5c0-6.5-3.3-11.4-11.5-11.4-4.2 0-7.6 1.5-10 4v-3.3h-6.4v34.2h6.4v-25.8c1.9-1.9 4.8-3.4 7.7-3.4 4.8-0.1 7.4 2.1 7.4 6.7zm38.5 15c-2.4 1.7-4.6 2.5-8.4 2.5-5.1 0-8.3-3.5-8.3-12 0-7.9 3.2-12.3 8.3-12.3 3.1 0 5.1 0.6 7.9 2.1l1.7-5.2c-2.1-1.5-5.4-2.5-9.9-2.5-8.3 0-14.6 6.3-14.6 17.9 0 11.4 5.1 17.7 14.3 17.7 4.8 0 7.8-1.2 11.3-3.6l-2.3-4.6zm-242-66.1h4.8l-1.4-45.6h-6.5l-13.9 39.6-12.7-39.6h-6.7l-1.4 45.6h4.2l1.3-40 2.9 9.6 9.7 30.4h4.8l10.5-30.4 3.1-9.6 1.3 40zm35.6 38.7c-8.7 0-14.6 5.8-14.6 17.6 0 12.1 5.8 18 15.1 18 5 0 8.8-1.3 12.3-3.6l-2.4-4.6c-2.6 1.9-5.6 2.8-9.4 2.8-5.2 0-8.8-3.2-9.1-11.1h21.5c0.1-12.4-3.6-19.1-13.4-19.1zm-8.1 14.2c0.4-6.1 3.3-9.2 7.9-9.2 4.5 0 6.9 3.5 7.3 9.2h-15.2zm-44.8 62.4c-2.1-2-4.9-3.1-8.6-3.1-8.7 0-13.8 6.3-13.8 18.5 0 11.6 4.3 17.1 13.5 17.1 3.2 0 6.9-1.7 8.9-3.9v3.2h6.5v-50l-6.5 3.1v15.1zm0 23.5c-2 1.8-4.5 3.4-7.5 3.4-5.4 0-8.5-3.4-8.5-11.6 0-9.6 3.1-12.7 8.8-12.7 2.6 0 5.1 1.1 7.1 2.7v18.2h0.1zm-8-110.9h-12.5v45.6h6.6v-18h4.9c9.8 0 16.1-5.1 16.1-14.8 0.1-8-5.8-12.8-15.1-12.8zm-1 22h-4.8v-16.5h5.5c5.8 0 8.7 2.7 8.7 8.1-0.1 6.2-3.8 8.4-9.4 8.4zm155.2 23.6h6.5v-50l-6.5 3.1v15.1c-2.1-2-4.9-3.1-8.6-3.1-8.7 0-13.8 6.3-13.8 18.5 0 11.6 4.3 17.1 13.5 17.1 3.2 0 6.9-1.7 8.9-3.9v3.2zm-7.5-4.9c-5.4 0-8.5-3.4-8.5-11.6 0-9.6 3.1-12.7 8.8-12.7 2.6 0 5.1 1.1 7.1 2.7v18.3c-1.9 1.8-4.4 3.3-7.4 3.3zm116.8 78.5h6.4v-50.1l-6.4 3.2v46.9zm-226.7-34.9c-4.3 0-8 1.3-11.1 3.2l2 4.6c2.3-1.5 5.1-2.4 7.9-2.4 5.4 0 7.3 2.1 7.3 6.8v3.1c-1.7-0.4-3.8-0.6-6.1-0.6-8.8 0-13.4 4-13.4 10.8 0 6.1 4.4 10.1 10 10.1 3.9 0 7.3-1.1 9.6-3.6v2.9h6.3v-23.2c-0.1-7.9-4.6-11.7-12.5-11.7zm6.1 27.4c-1.6 1.4-4.3 2.9-7.1 2.9-4.3 0-6.2-1.7-6.2-5.3 0-3.4 2.4-5.6 7.5-5.6 2 0 3.9 0.2 5.8 0.6v7.4z" fill="#fff" fill-rule="evenodd"/>
</svg>
