<?xml version="1.0" encoding="UTF-8"?>
<svg style="isolation:isolate" viewBox="0 0 469.2 124.92" xmlns="http://www.w3.org/2000/svg">
<path d="m90.51 124.92c-24.84-0.01-44.23-19.4-44.27-44.28-0.04-24.9 19.5-44.38 44.39-44.49 25.5-0.11 44.89 21.55 44.43 45.33-0.47 23.89-20.13 43.45-44.55 43.44zm31.66-26.16c-0.11-0.22-0.21-0.44-0.32-0.66-1.73 0.6-3.51 1.09-5.19 1.82-6.34 2.74-12.92 3.43-19.69 2.43-8.57-1.27-16.11-4.94-22.95-10.15-1.52-1.16-3.22-2.34-5-1.28-1.91 1.13-1.41 3.29-0.84 5.01 1.3 3.92 2.73 7.81 4.25 11.65 1.2 3.03 3.6 4.93 6.7 5.64 2.23 0.51 4.61 0.83 6.87 0.63 12.99-1.15 24.35-6.59 35-13.77 0.47-0.3 0.78-0.86 1.17-1.32z" fill="#d12028"/>
<path d="m176.17 73.41c0 9.78 0.01 19.46-0.01 29.13 0 2.24 0.13 4.5-0.15 6.7-0.64 4.93-3.88 7.35-9.09 7.05-4.53-0.26-7.45-3.21-7.5-7.97-0.1-9.04-0.03-18.08-0.03-27.11v-7.88h-5.02v2.65c0 10.56-0.14 21.12 0.06 31.67 0.1 5.28-3.33 10.09-11.15 8.34-3.46-0.78-5.47-3.76-5.48-7.78-0.03-10.96-0.01-21.92-0.01-32.87 0-3.76-0.04-7.52 0.01-11.28 0.08-4.92 2.56-7.72 7.5-7.78 13.44-0.14 26.87-0.12 40.31-0.02 4.17 0.03 6.8 2.31 7.95 6.39 4.05 14.43 8.08 28.86 12.07 43.31 1.41 5.11-0.73 8.8-5.81 10.27-4.91 1.42-8.71-0.55-10.18-5.6-3.42-11.79-6.72-23.61-9.97-35.45-0.53-1.88-1.38-2.5-3.5-1.77zm49.55-0.31v4.69c0.83 0.04 1.68 0.11 2.52 0.11 7.28 0.01 14.56-0.04 21.84 0.02 6.52 0.06 10.35 5.64 8.15 11.75-1.22 3.4-4.27 5.2-9.11 5.23-6.88 0.04-13.76 0.01-20.64 0.01h-2.71v4.59h2.56c7.12 0 14.24-0.05 21.36 0.02 6.67 0.06 10.43 4.97 8.7 11.19-0.97 3.48-3.85 5.74-7.91 5.77-11.2 0.08-22.4 0.11-33.6-0.01-5.34-0.06-7.9-2.85-7.9-8.13-0.01-14.64-0.01-29.28 0-43.91 0-5.41 2.64-8.16 8.08-8.19 11.04-0.07 22.08-0.06 33.12 0 5.25 0.02 8.6 3.45 8.58 8.56-0.03 5-3.3 8.24-8.53 8.29-7.2 0.06-14.4 0.02-21.6 0.02-0.89-0.01-1.76-0.01-2.91-0.01zm52.3 27.97c0 2.14 0.03 3.8-0.01 5.45-0.1 4.53-3.22 7.59-7.79 7.67-4.6 0.08-8.05-2.85-8.08-7.32-0.1-14.63-0.09-29.26 0-43.88 0.02-4.08 2.18-6.53 6.38-6.61 8.62-0.16 17.27-0.28 25.86 0.35 7.5 0.54 11.62 4.79 13.18 12.1 0.98 4.59 0.84 9.22-0.46 13.74-1.85 6.41-6.51 9.86-13.89 10.5-0.6 0.05-1.2 0.08-1.88 0.51 4.14 1.77 8.24 3.66 12.45 5.27 4.35 1.66 5.4 4.58 3.98 9.28-1.31 4.36-5.57 6.85-9.43 5.65-1.49-0.46-2.9-1.3-4.23-2.15-5.22-3.39-10.4-6.83-16.08-10.56zm1-24.22c4.41 0 8.7 0.1 12.97-0.1 0.71-0.03 1.9-1.38 1.89-2.09-0.02-0.74-1.21-2.05-1.93-2.08-4.27-0.2-8.56-0.1-12.92-0.1-0.01 1.57-0.01 2.88-0.01 4.37zm98.13 31.55c0.5-1.49 0.86-3.05 1.52-4.46 6.61-14.07 13.26-28.12 19.93-42.16 1.64-3.45 4.38-5.44 8.27-5.58 3.99-0.15 6.22 1.43 7.96 5.6 5.62 13.46 11.21 26.93 16.81 40.39 0.43 1.03 0.89 2.05 1.29 3.09 1.71 4.47 0.01 8.54-4.35 10.47-4.54 2.02-9.28 0.6-11-3.9-1.17-3.07-2.86-3.72-5.85-3.57-4.86 0.25-9.75 0.12-14.62 0.04-1.49-0.03-2.24 0.47-2.91 1.83-0.86 1.76-1.81 3.69-3.26 4.9-2.63 2.19-5.8 2.02-8.8 0.54-2.9-1.42-4.89-3.57-4.99-7.19zm24.88-15.38h7.57c-1.17-2.8-2.25-5.37-3.49-8.31-1.47 2.99-2.72 5.53-4.08 8.31zm-60.83-19.61c-4.09-0.38-7.95-0.05-11.23 2.9-4.09 3.69-5.59 9.33-3.72 14.65 1.73 4.93 6.47 8.35 11.9 8.54 2.79 0.1 5.61-0.09 8.37 0.25 4.63 0.58 7.37 3.98 7.3 8.57-0.06 4.32-2.82 7.66-7.32 8.05-10.51 0.92-20.49-0.47-28.51-8.23-9.08-8.78-11.93-19.48-8.02-31.34 3.86-11.7 12.52-18.41 24.79-20.09 3.46-0.48 7.01-0.47 10.52-0.46 5.07 0.01 8.57 3.67 8.54 8.69-0.03 4.83-3.55 8.33-8.55 8.46-1.35 0.04-2.71 0.01-4.07 0.01zm-307.53 43.24c-13.64 0.43-23.63-4.86-30.03-16.15-9.84-17.37 1.35-40.28 21.08-43.28 4.39-0.67 8.91-0.68 13.36-0.57 4.63 0.11 7.46 3.82 7.31 8.9-0.14 4.6-3.36 7.84-7.88 7.9-2.48 0.03-4.95 0-7.43 0.01-6.34 0.02-12.04 4.86-12.69 10.78-0.85 7.68 3.06 13.81 10.01 15.11 3.02 0.57 6.19 0.46 9.29 0.51 5.47 0.09 8.7 3.22 8.7 8.59 0 5.03-3.23 8.14-8.54 8.21-1.28 0-2.55-0.01-3.18-0.01zm418.63-17.14c2.95 0 5.65-0.07 8.35 0.01 7.03 0.2 10.81 7.4 7.11 13.44-1.54 2.52-3.9 3.49-6.66 3.52-5.75 0.08-11.51 0.1-17.26 0-5.4-0.1-8.11-2.7-8.15-8.21-0.11-14.54-0.11-29.09 0-43.64 0.04-5.15 3.66-8.48 8.53-8.33 4.96 0.16 8.07 3.51 8.08 8.74 0.01 10.55 0 21.1 0 31.65v2.82zm-148.32-59.3c0 1.35 0.01 2.23 0 3.11-0.05 3.58-1.98 5.62-5.36 5.65-3.47 0.03-5.6-2.07-5.61-5.71-0.01-9.19 0.01-18.38 0.1-27.57 0.05-4.93 1.4-6.19 6.33-6.19 4.64 0 9.28-0.13 13.91 0.05 6.86 0.27 10.3 3.36 11.05 10.14 0.28 2.55-0.05 5.28-0.65 7.8-1.05 4.42-4.33 6.49-8.68 7.04-0.47 0.06-0.95 0.08-1.43 0.13-0.04 0-0.07 0.09-0.24 0.36 2.65 1.13 5.2 2.38 7.87 3.31 3.87 1.35 3.99 4.35 2.78 7.11-1.47 3.36-4.62 4.48-7.69 2.68-3.23-1.9-6.3-4.07-9.45-6.1-0.85-0.56-1.73-1.07-2.93-1.81zm0.26-16.66c3.11 0 6.06 0.07 8.99-0.07 0.56-0.03 1.09-0.9 1.63-1.38-0.5-0.5-0.97-1.42-1.49-1.44-3-0.14-6.01-0.07-9.13-0.07v2.96zm150.94 5.62c-0.01 11.1-8.78 19.79-19.99 19.8-11.3 0.01-19.96-8.68-19.97-20.05-0.01-11.23 8.82-20.13 19.98-20.13 11.22 0 19.99 8.95 19.98 20.38zm-10.99-0.11c-0.01-4.95-4.04-8.95-9-8.93-4.95 0.02-8.88 4.05-8.84 9.08 0.04 4.92 3.93 8.77 8.86 8.77 5.02 0.01 8.99-3.94 8.98-8.92zm-79.11 0.24c0-4.32-0.02-8.63 0-12.95 0.03-4.56 2.26-6.9 6.74-6.83 4.38 0.07 8.85-0.13 13.12 0.64 9.94 1.8 16.46 10.91 15.42 20.82-1.03 9.8-9.42 17.52-19.21 17.64-3.28 0.04-6.56 0.02-9.83 0-4.22-0.02-6.14-1.86-6.22-6.13-0.08-4.4-0.01-8.79-0.02-13.19zm11.15 8.14c4.76 0.43 9.12 0.51 11.84-4.08 1.65-2.79 1.42-7.03-0.5-9.47-2.34-2.97-6.92-4.14-11.35-2.85 0.01 5.38 0.01 10.78 0.01 16.4zm-0.77 48.89c0 7.11 0.01 14.22 0 21.33-0.01 5.51-3.01 8.62-8.3 8.64-5.31 0.01-8.41-3.04-8.42-8.52-0.04-14.3-0.04-28.6 0-42.9 0.01-5.16 3.61-8.69 8.55-8.56 4.93 0.13 8.17 3.55 8.18 8.68 0 7.11-0.01 14.22-0.01 21.33zm-12.1-43.23c0.05 2.74-1.63 4.75-4.26 5.46-2.69 0.73-5.1 0-6.04-2.46-0.91-2.39-2.41-2.68-4.57-2.57-2.71 0.14-5.44 0.13-8.15 0-1.59-0.08-2.38 0.45-3.05 1.92-1.63 3.54-5.14 4.4-8.35 2.25-2.3-1.54-2.96-3.88-1.64-6.73 3.79-8.17 7.66-16.3 11.52-24.44 0.68-1.44 1.37-2.89 2.16-4.27 1.19-2.06 3.13-2.96 5.42-2.9 2.18 0.06 3.71 1.26 4.56 3.31 3.97 9.57 7.96 19.13 11.92 28.7 0.29 0.66 0.39 1.39 0.48 1.73zm-15.79-9.75c-0.73-1.77-1.36-3.28-2.16-5.21-0.95 1.94-1.7 3.46-2.56 5.21h4.72zm65.5-4.31c0 4.63 0.03 9.27-0.01 13.9-0.03 3.49-1.73 5.45-4.82 5.66-3.47 0.24-5.56-1.43-6.06-4.95-0.15-1.02-0.13-2.07-0.13-3.1-0.01-8.15-0.04-16.3 0.01-24.45 0.03-4.44 1.85-6.47 5.58-6.48 3.41-0.01 5.37 1.83 5.41 5.27 0.07 4.72 0.02 9.44 0.02 14.15zm-60.76-25.61c-0.4 0.39-1 1.49-1.87 1.76-3.56 1.12-7.18 2.05-10.8 2.93-1.71 0.41-3.03-0.26-3.39-2.1-0.32-1.67 0.45-2.72 2.13-3.16 3.37-0.89 6.72-1.9 10.11-2.73 2.22-0.55 3.85 0.68 3.82 3.3z" fill="#fff" fill-rule="evenodd"/>
</svg>
